<svg width="14" height="14" viewBox="0 0 14 14" fill="none" xmlns="http://www.w3.org/2000/svg">
<path d="M3.79547 12.2196C3.86977 12.2847 3.958 12.3363 4.05512 12.3716C4.15223 12.4068 4.25634 12.4249 4.36147 12.4249C4.4666 12.4249 4.5707 12.4068 4.66782 12.3716C4.76494 12.3363 4.85317 12.2847 4.92747 12.2196L10.3655 7.46488C10.4398 7.39987 10.4989 7.32266 10.5391 7.23768C10.5794 7.15271 10.6001 7.06162 10.6001 6.96963C10.6001 6.87764 10.5794 6.78655 10.5391 6.70157C10.4989 6.61659 10.4398 6.53939 10.3655 6.47438L4.92747 1.71963C4.85385 1.65195 4.76549 1.59785 4.66761 1.56052C4.56972 1.52319 4.46428 1.50339 4.35751 1.50227C4.25074 1.50116 4.14479 1.51876 4.04591 1.55404C3.94704 1.58932 3.85723 1.64156 3.78179 1.70769C3.70636 1.77381 3.64681 1.85248 3.60667 1.93906C3.56652 2.02564 3.54659 2.11837 3.54806 2.2118C3.54952 2.30522 3.57234 2.39745 3.61517 2.48303C3.65801 2.56862 3.71999 2.64583 3.79747 2.71013L8.66947 6.96963L3.79747 11.2291C3.72296 11.294 3.66379 11.3711 3.62336 11.456C3.58293 11.541 3.56202 11.632 3.56184 11.724C3.56165 11.816 3.58219 11.9071 3.62228 11.9922C3.66237 12.0772 3.72122 12.1545 3.79547 12.2196Z" fill="white"/>
</svg>
