<svg width="13" height="8" viewBox="0 0 13 8" fill="none" xmlns="http://www.w3.org/2000/svg">
<path d="M0.234629 0.248105C0.160248 0.322403 0.101241 0.410635 0.0609815 0.507753C0.020722 0.604871 -2.77295e-07 0.708973 -2.72699e-07 0.814105C-2.68104e-07 0.919238 0.0207221 1.02334 0.0609815 1.12046C0.101241 1.21758 0.160248 1.30581 0.234629 1.3801L5.66863 6.8181C5.74293 6.89249 5.83116 6.95149 5.92828 6.99175C6.0254 7.03201 6.1295 7.05273 6.23463 7.05273C6.33976 7.05273 6.44386 7.03201 6.54098 6.99175C6.6381 6.95149 6.72633 6.89249 6.80063 6.8181L12.2346 1.3801C12.312 1.30649 12.3738 1.21813 12.4165 1.12024C12.4591 1.02236 12.4818 0.916918 12.483 0.810146C12.4843 0.703373 12.4642 0.597426 12.4239 0.49855C12.3836 0.399674 12.3238 0.309871 12.2483 0.234432C12.1727 0.158994 12.0828 0.0994477 11.9838 0.0593042C11.8849 0.0191607 11.7789 -0.0007687 11.6721 0.000692334C11.5654 0.00215289 11.46 0.0249729 11.3622 0.0678081C11.2644 0.110643 11.1761 0.172627 11.1026 0.250105L6.23463 5.1221L1.36663 0.250105C1.29246 0.175592 1.20434 0.116429 1.10729 0.0759978C1.01024 0.0355668 0.906176 0.0146603 0.801044 0.0144744C0.695911 0.0142884 0.591773 0.0348282 0.494584 0.0749159C0.397394 0.115004 0.309059 0.173855 0.234629 0.248105Z" fill="black"/>
</svg>
