<svg width="14" height="14" viewBox="0 0 14 14" fill="none" xmlns="http://www.w3.org/2000/svg">
<g clip-path="url(#clip0_142_1429)">
<path d="M0.491028 7.18018C0.219821 7.18018 0 7.4 0 7.66835V12.7984C0 13.0696 0.219821 13.2895 0.491028 13.2895H3.71697C3.98817 13.2895 4.20514 13.0696 4.20514 12.7984V7.66835C4.20514 7.39714 3.98532 7.18018 3.71697 7.18018H0.491028ZM3.22594 12.3103H0.979201V8.15937H3.22594V12.3103Z" fill="white"/>
<path d="M14 12.802V4.70294C14 4.43173 13.7802 4.21191 13.509 4.21191H10.283C10.0118 4.21191 9.79199 4.43173 9.79199 4.70294V12.7992C9.79199 13.0704 10.0118 13.2902 10.283 13.2902H13.509C13.7802 13.2902 14 13.0704 14 12.802ZM13.0208 12.311H10.774V5.19397H13.0208V12.311Z" fill="white"/>
<path d="M8.61297 13.2897C8.88418 13.2897 9.10115 13.0698 9.10115 12.7986V1.19952C9.10115 0.928317 8.88133 0.708496 8.61297 0.708496H5.38703C5.11582 0.708496 4.896 0.928317 4.896 1.19952V12.7986C4.896 13.0698 5.11582 13.2897 5.38703 13.2897H8.61297ZM5.87805 1.69055H8.1248V12.3105H5.87805V1.69055Z" fill="white"/>
</g>
<defs>
<clipPath id="clip0_142_1429">
<rect width="14" height="14" fill="white"/>
</clipPath>
</defs>
</svg>
