<svg width="18" height="18" viewBox="0 0 18 18" fill="none" xmlns="http://www.w3.org/2000/svg">
<g clip-path="url(#clip0_144_11993)">
<path d="M17.8781 9.37105C18.0471 9.13959 18.0398 8.82363 17.8597 8.59952C15.1373 5.25254 12.1982 3.55518 9.1194 3.55518C3.8987 3.55518 0.27251 8.4195 0.121877 8.62524C-0.0471246 8.8567 -0.0397766 9.17266 0.140247 9.39677C2.85898 12.7474 5.79814 14.4448 8.87692 14.4448C14.0976 14.4448 17.7238 9.58047 17.8781 9.37105ZM8.87692 13.1846C6.31249 13.1846 3.8142 11.7738 1.44083 8.99631C2.37034 7.89779 5.3242 4.81534 9.1194 4.81534C11.6838 4.81534 14.1821 6.22614 16.5555 9.00365C15.626 10.1022 12.6721 13.1846 8.87692 13.1846Z" fill="white"/>
<path d="M8.99788 5.7998C7.23437 5.7998 5.79785 7.23632 5.79785 8.99982C5.79785 10.7633 7.23437 12.1998 8.99788 12.1998C10.7614 12.1998 12.1979 10.7633 12.1979 8.99982C12.1979 7.23632 10.7614 5.7998 8.99788 5.7998ZM8.99788 10.9397C7.92875 10.9397 7.05802 10.0689 7.05802 8.99982C7.05802 7.9307 7.92875 7.05997 8.99788 7.05997C10.067 7.05997 10.9377 7.9307 10.9377 8.99982C10.9377 10.0689 10.067 10.9397 8.99788 10.9397Z" fill="white"/>
</g>
<defs>
<clipPath id="clip0_144_11993">
<rect width="18" height="18" fill="white"/>
</clipPath>
</defs>
</svg>
