<svg width="14" height="14" viewBox="0 0 14 14" fill="none" xmlns="http://www.w3.org/2000/svg">
<path d="M3.79547 12.9656C3.86977 13.0399 3.958 13.099 4.05512 13.1392C4.15223 13.1795 4.25634 13.2002 4.36147 13.2002C4.4666 13.2002 4.5707 13.1795 4.66782 13.1392C4.76494 13.099 4.85317 13.0399 4.92747 12.9656L10.3655 7.53157C10.4398 7.45727 10.4989 7.36904 10.5391 7.27192C10.5794 7.1748 10.6001 7.0707 10.6001 6.96557C10.6001 6.86043 10.5794 6.75633 10.5391 6.65921C10.4989 6.5621 10.4398 6.47386 10.3655 6.39957L4.92747 0.965567C4.85385 0.888219 4.76549 0.826393 4.66761 0.783731C4.56972 0.741068 4.46428 0.718435 4.35751 0.717163C4.25074 0.715891 4.14479 0.736007 4.04591 0.776326C3.94704 0.816644 3.85723 0.876349 3.78179 0.951921C3.70636 1.02749 3.64681 1.1174 3.60667 1.21635C3.56652 1.31529 3.54659 1.42128 3.54805 1.52805C3.54952 1.63482 3.57234 1.74022 3.61517 1.83803C3.65801 1.93584 3.71999 2.02409 3.79747 2.09757L8.66947 6.96557L3.79747 11.8336C3.72296 11.9077 3.66379 11.9959 3.62336 12.0929C3.58293 12.19 3.56202 12.294 3.56184 12.3992C3.56165 12.5043 3.58219 12.6084 3.62228 12.7056C3.66237 12.8028 3.72122 12.8911 3.79547 12.9656Z" fill="#5DC563"/>
</svg>
