<svg width="16" height="16" viewBox="0 0 16 16" fill="none" xmlns="http://www.w3.org/2000/svg">
<path fill-rule="evenodd" clip-rule="evenodd" d="M9.3491 3.14856L9.40915 3.18323C9.92789 3.4827 10.3605 3.73243 10.6772 3.97686C11.0115 4.23485 11.2769 4.53098 11.388 4.94577C11.4992 5.36056 11.4174 5.74969 11.2569 6.14029C11.1048 6.51034 10.8551 6.94289 10.5555 7.46161L7.97186 11.9368C7.7739 12.2803 7.61737 12.5519 7.37913 12.7566C7.1409 12.9613 6.8488 13.0752 6.47938 13.2191L6.37955 13.2581C5.69407 13.5259 5.12903 13.7467 4.66633 13.8548C4.1824 13.9679 3.71516 13.9819 3.27965 13.7305C2.84413 13.4791 2.62269 13.0674 2.47865 12.5918C2.34091 12.137 2.24959 11.5373 2.1388 10.8097L2.12263 10.7038C2.06261 10.3119 2.01515 10.002 2.07331 9.6933C2.08058 9.65471 2.08939 9.61671 2.09964 9.57908C2.17136 9.31566 2.31326 9.07036 2.48696 8.77006L5.07071 4.29495C5.37019 3.7762 5.61991 3.34364 5.86434 3.02689C6.12234 2.69257 6.41847 2.42722 6.83326 2.31608C7.24804 2.20493 7.63718 2.28667 8.02777 2.4472C8.39782 2.5993 8.83038 2.84905 9.3491 3.14856ZM5.6694 5.25799L9.42218 7.42465L7.13989 11.3777C6.89125 11.8084 6.82016 11.9185 6.72743 11.9981C6.63471 12.0778 6.51514 12.1315 6.05196 12.3125C5.32098 12.5981 4.82314 12.7912 4.43882 12.881C4.06757 12.9678 3.89911 12.9334 3.77964 12.8645C3.66018 12.7955 3.54622 12.6668 3.43571 12.3019C3.32132 11.9242 3.2397 11.3964 3.12153 10.6206C3.04666 10.129 3.03338 9.99859 3.05602 9.87845C3.07865 9.75831 3.13847 9.64169 3.38711 9.21103L5.6694 5.25799ZM10.332 5.76014C10.2436 5.9751 10.1085 6.22785 9.92113 6.55802L6.17045 4.39257C6.3627 4.06521 6.51403 3.82182 6.65602 3.63783C6.84566 3.39209 6.9734 3.3138 7.09207 3.282C7.21075 3.2502 7.36052 3.25413 7.64762 3.37213C7.94815 3.49565 8.32255 3.71058 8.87912 4.03192C9.4357 4.35326 9.80903 4.57003 10.0663 4.76854C10.312 4.95818 10.3903 5.08591 10.4221 5.20459C10.4539 5.32327 10.45 5.47303 10.332 5.76014Z" fill="#4C4560"/>
<path d="M8.44043 13.5008C8.44043 13.2246 8.66429 13.0008 8.94043 13.0008H12.9404C13.2166 13.0008 13.4404 13.2246 13.4404 13.5008C13.4404 13.7769 13.2166 14.0008 12.9404 14.0008H8.94043C8.66429 14.0008 8.44043 13.7769 8.44043 13.5008Z" fill="#4C4560"/>
</svg>
