<svg width="14" height="14" viewBox="0 0 14 14" fill="none" xmlns="http://www.w3.org/2000/svg">
<g clip-path="url(#clip0_144_11562)">
<path d="M0.491429 7.48822H6.74857C6.96857 8.39394 7.78571 9.06822 8.76 9.06822C9.73428 9.06822 10.5486 8.39394 10.7714 7.48822H13.5086C13.78 7.48822 14 7.26822 14 6.99679C14 6.72537 13.78 6.50822 13.5086 6.50822H10.7714C10.5514 5.60251 9.73428 4.92822 8.76 4.92822C7.78571 4.92822 6.97143 5.60251 6.74857 6.50822H0.491429C0.22 6.50822 0 6.72822 0 6.99679C0.00285714 7.27108 0.222857 7.48822 0.491429 7.48822ZM8.76 5.91108C9.36 5.91108 9.84857 6.39965 9.84857 6.99965C9.84857 7.59965 9.36 8.08822 8.76 8.08822C8.16 8.08822 7.66857 7.59965 7.66857 6.99965C7.66857 6.39965 8.15714 5.91108 8.76 5.91108Z" fill="#5DC563"/>
<path d="M0.491429 12.2397H3.49429C3.71429 13.1454 4.53143 13.8197 5.50571 13.8197C6.48 13.8197 7.29428 13.1454 7.51714 12.2397H13.5086C13.78 12.2397 14 12.0197 14 11.7511C14 11.4797 13.78 11.2597 13.5086 11.2597H7.51714C7.29714 10.354 6.48 9.67969 5.50571 9.67969C4.53143 9.67969 3.71714 10.354 3.49429 11.2597H0.491429C0.22 11.2597 0 11.4797 0 11.7511C0.00285714 12.0197 0.222857 12.2397 0.491429 12.2397ZM5.50571 10.6597C6.10571 10.6597 6.59429 11.1483 6.59429 11.7483C6.59429 12.3483 6.10571 12.8368 5.50571 12.8368C4.91429 12.8368 4.43143 12.3625 4.41714 11.7711C4.41714 11.7625 4.41714 11.754 4.41714 11.7454C4.41714 11.7368 4.41714 11.7283 4.41714 11.7197C4.43143 11.134 4.91429 10.6597 5.50571 10.6597Z" fill="black"/>
<path d="M0.491429 2.73969H3.49429C3.71429 3.6454 4.53143 4.31969 5.50571 4.31969C6.48 4.31969 7.29428 3.6454 7.51714 2.73969H13.5086C13.78 2.73969 14 2.51969 14 2.24826C14 1.97683 13.78 1.75969 13.5086 1.75969H7.51714C7.29714 0.853973 6.48 0.179688 5.50571 0.179688C4.53143 0.179688 3.71714 0.853973 3.49429 1.75969H0.491429C0.22 1.75969 0 1.97969 0 2.24826C0.00285714 2.51969 0.222857 2.73969 0.491429 2.73969ZM5.50571 1.15969C6.10571 1.15969 6.59429 1.64826 6.59429 2.24826C6.59429 2.84826 6.10571 3.33683 5.50571 3.33683C4.91429 3.33683 4.43143 2.86254 4.41714 2.27112C4.41714 2.26254 4.41714 2.25397 4.41714 2.2454C4.41714 2.23683 4.41714 2.22826 4.41714 2.21969C4.43143 1.63683 4.91429 1.15969 5.50571 1.15969Z" fill="black"/>
</g>
<defs>
<clipPath id="clip0_144_11562">
<rect width="14" height="14" fill="white"/>
</clipPath>
</defs>
</svg>
