<svg width="12" height="12" viewBox="0 0 12 12" fill="none" xmlns="http://www.w3.org/2000/svg">
<path fill-rule="evenodd" clip-rule="evenodd" d="M11.6928 3.40021C11.4928 3.61449 11.1642 3.61449 10.9642 3.40021L9.63565 2.01449V11.2288C9.63565 11.5145 9.40707 11.7431 9.12136 11.7431C8.83565 11.7431 8.60707 11.5145 8.60707 11.2288V2.01449L7.2785 3.40021C7.0785 3.61449 6.74993 3.61449 6.54993 3.40021C6.34993 3.18592 6.34993 2.84307 6.54993 2.62878L8.70707 0.357352C8.70707 0.357352 8.70707 0.357352 8.72136 0.343066L8.74993 0.314495C8.83565 0.214495 8.96422 0.157352 9.10707 0.157352C9.24993 0.157352 9.3785 0.214495 9.4785 0.314495L11.6785 2.62878C11.8928 2.84307 11.8928 3.18592 11.6928 3.40021ZM3.40707 11.5288L3.36422 11.5716C3.2785 11.6716 3.14993 11.7288 3.00707 11.7288C2.86422 11.7288 2.73564 11.6716 2.63564 11.5716L0.435645 9.25735C0.235645 9.04307 0.235645 8.70021 0.435645 8.48592C0.635645 8.27164 0.964216 8.27164 1.16422 8.48592L2.49279 9.87164V0.657352C2.49279 0.371638 2.72136 0.143066 3.00707 0.143066C3.29279 0.143066 3.52136 0.371638 3.52136 0.657352V9.87164L4.84993 8.48592C5.04993 8.27164 5.3785 8.27164 5.5785 8.48592C5.7785 8.70021 5.7785 9.04307 5.5785 9.25735L3.40707 11.5288Z" fill="black"/>
</svg>
