<svg width="28" height="28" viewBox="0 0 28 28" fill="none" xmlns="http://www.w3.org/2000/svg">
<g clip-path="url(#clip0_20_191)">
<path d="M18.6759 16.7089H16.5797V15.7531C16.5797 14.0749 15.2143 12.7095 13.5361 12.7095H11.6908C11.2378 12.7095 10.8705 13.0768 10.8705 13.5298V15.3371C10.8705 16.7339 9.88954 17.9361 8.52865 18.2223H4.18799C3.73496 18.2223 3.36768 18.5896 3.36768 19.0426V25.8648C3.36768 26.3178 3.73496 26.6851 4.18799 26.6851H18.5084C20.1867 26.6851 21.552 25.3197 21.552 23.6414V19.5851C21.5521 17.9992 20.2618 16.7089 18.6759 16.7089ZM5.0083 19.8629H7.79228V25.0444H5.0083V19.8629ZM19.9115 23.6414C19.9115 24.415 19.2821 25.0444 18.5085 25.0444H9.4329V19.6711C11.2515 19.0378 12.511 17.312 12.511 15.3371V14.3501H13.536C14.3096 14.3501 14.939 14.9795 14.939 15.7531V17.5292C14.939 17.9823 15.3063 18.3496 15.7593 18.3496H18.6759C19.3572 18.3496 19.9114 18.9038 19.9114 19.5851V23.6414H19.9115Z" fill="#5DC563"/>
<path d="M11.2696 6.29976L11.2532 8.05649C11.2507 8.32183 11.3767 8.57192 11.5914 8.72783C11.806 8.88375 12.0828 8.92635 12.3343 8.84191L14 8.28344L15.6656 8.84196C15.7508 8.87051 15.8388 8.88451 15.9264 8.88451C16.0975 8.88451 16.2667 8.83097 16.4086 8.72789C16.6232 8.57192 16.7492 8.32183 16.7467 8.05654L16.7303 6.29982L17.7761 4.88828C17.9341 4.67516 17.9791 4.39877 17.8972 4.1465C17.8152 3.89417 17.6162 3.69707 17.3632 3.61745L15.6873 3.09021L14.6681 1.65931C14.5141 1.44324 14.2653 1.31494 13.9999 1.31494C13.7346 1.31494 13.4857 1.44324 13.3317 1.65931L12.3125 3.09021L10.6366 3.61745C10.3836 3.69707 10.1846 3.89417 10.1027 4.1465C10.0207 4.39877 10.0657 4.67516 10.2237 4.88828L11.2696 6.29976ZM13.0673 4.57262C13.2376 4.51908 13.3857 4.41146 13.4892 4.2661L14 3.54909L14.5107 4.26604C14.6142 4.4114 14.7624 4.51903 14.9326 4.57257L15.7723 4.83676L15.2483 5.54403C15.1421 5.68743 15.0854 5.86161 15.0872 6.04005L15.0954 6.9203L14.2607 6.64047C14.1761 6.61208 14.088 6.59792 13.9999 6.59792C13.9118 6.59792 13.8237 6.61214 13.7391 6.64047L12.9045 6.9203L12.9127 6.04005C12.9144 5.86155 12.8578 5.68743 12.7515 5.54403L12.2275 4.83676L13.0673 4.57262Z" fill="#5DC563"/>
<path d="M5.60303 8.84288C5.85454 8.92732 6.13136 8.88472 6.34596 8.7288C6.56061 8.57283 6.68661 8.32275 6.68409 8.05746L6.66768 6.30073L7.71347 4.88919C7.87147 4.67608 7.91653 4.39969 7.83455 4.14741C7.75257 3.89508 7.55362 3.69799 7.30058 3.61837L5.62474 3.09112L4.60547 1.66022C4.45158 1.44415 4.20265 1.31586 3.93736 1.31586C3.67201 1.31586 3.42318 1.44415 3.26918 1.66022L2.25003 3.09112L0.57413 3.61837C0.321091 3.69799 0.122137 3.89508 0.0401609 4.14741C-0.0418157 4.39969 0.0032468 4.67608 0.161239 4.88925L1.20708 6.30073L1.19062 8.05746C1.18811 8.32275 1.31411 8.57283 1.52875 8.72875C1.67072 8.83194 1.83987 8.88543 2.01093 8.88543C2.09849 8.88543 2.18654 8.87143 2.27168 8.84288L3.93736 8.28436L5.60303 8.84288ZM2.84202 6.92127L2.85022 6.04102C2.85192 5.86252 2.79532 5.6884 2.68906 5.54495L2.16504 4.83773L3.00472 4.57354C3.17496 4.52 3.32311 4.41237 3.42663 4.26701L3.93736 3.55006L4.44814 4.26701C4.55172 4.41237 4.69981 4.52 4.87005 4.57354L5.70972 4.83773L5.18571 5.54501C5.07945 5.6884 5.02279 5.86258 5.02454 6.04102L5.03275 6.92127L4.19811 6.64144C4.1135 6.61305 4.0254 6.59889 3.9373 6.59889C3.8492 6.59889 3.7611 6.61311 3.6765 6.64144L2.84202 6.92127Z" fill="#5DC563"/>
<path d="M27.9601 4.14644C27.8782 3.89411 27.6792 3.69701 27.4262 3.61739L25.7503 3.09015L24.7311 1.65925C24.5771 1.44318 24.3282 1.31488 24.0629 1.31488C23.7976 1.31488 23.5487 1.44318 23.3948 1.65925L22.3755 3.09015L20.6996 3.61739C20.4466 3.69701 20.2476 3.89411 20.1656 4.14644C20.0837 4.39871 20.1287 4.6751 20.2867 4.88822L21.3325 6.29976L21.3161 8.05648C21.3136 8.32183 21.4396 8.57191 21.6542 8.72783C21.7962 8.83097 21.9654 8.88445 22.1364 8.88445C22.224 8.88445 22.312 8.87045 22.3972 8.8419L24.0628 8.28338L25.7285 8.8419C25.9798 8.92623 26.2567 8.88374 26.4714 8.72783C26.686 8.57186 26.812 8.32177 26.8095 8.05648L26.7931 6.29976L27.8389 4.88827C27.997 4.6751 28.0421 4.39876 27.9601 4.14644ZM25.3112 5.54403C25.205 5.68747 25.1483 5.86165 25.1501 6.0401L25.1583 6.92035L24.3237 6.64051C24.1545 6.5838 23.9713 6.5838 23.8021 6.64051L22.9675 6.92035L22.9757 6.0401C22.9774 5.8616 22.9208 5.68747 22.8145 5.54408L22.2905 4.83681L23.1302 4.57261C23.3004 4.51908 23.4485 4.41145 23.5521 4.26609L24.0629 3.54914L24.5736 4.26609C24.6771 4.41145 24.8253 4.51908 24.9955 4.57261L25.8352 4.83681L25.3112 5.54403Z" fill="#5DC563"/>
</g>
<defs>
<clipPath id="clip0_20_191">
<rect width="28" height="28" fill="white"/>
</clipPath>
</defs>
</svg>
