<svg width="28" height="28" viewBox="0 0 28 28" fill="none" xmlns="http://www.w3.org/2000/svg">
<g clip-path="url(#clip0_20_164)">
<path d="M27.6693 15.9892C26.9904 14.8146 25.4832 14.4105 24.3095 15.0884C23.1576 15.7536 21.5205 16.6989 20.2397 17.4384C20.0571 16.4589 19.2864 15.6488 18.2475 15.4656L12.3862 14.4321C10.8035 14.153 9.17301 14.4405 7.78116 15.2441L4.37762 17.2091L3.93072 16.4351C3.7042 16.0428 3.2025 15.9083 2.81017 16.1349L0.410156 17.5205C0.156352 17.667 0 17.9378 0 18.2309V27.1798C0 27.6329 0.367281 28.0001 0.820312 28.0001H7.19534C7.33934 28.0001 7.48081 27.9622 7.6055 27.8902L9.09923 27.0278C9.49156 26.8013 9.62604 26.2996 9.39947 25.9073L8.98926 25.1968L10.4547 24.3507L16.3519 24.3771C17.4642 24.3821 18.5613 24.0907 19.5245 23.5346L26.7691 19.352C27.9466 18.6721 28.3497 17.1663 27.6693 15.9892ZM6.9755 26.3595H1.64062V18.7045L2.92009 17.9659L7.56837 26.0172L7.56848 26.0171V26.0172L6.9755 26.3595ZM25.9488 17.9311L18.7042 22.1138C17.9922 22.5249 17.1813 22.7402 16.3592 22.7365L10.2404 22.7091C10.0951 22.7085 9.95236 22.7464 9.82658 22.819L8.169 23.776L5.19794 18.63L8.60152 16.6649C9.65754 16.0553 10.9004 15.836 12.1014 16.0479L17.9397 17.0773C18.3747 17.154 18.69 17.5543 18.6339 17.9923C18.574 18.4601 18.1368 18.7779 17.6777 18.6969L12.4619 17.7769C12.0156 17.6983 11.5903 17.996 11.5116 18.4422C11.4329 18.8884 11.7307 19.3138 12.1769 19.3925L17.3926 20.3126C17.9982 20.4194 18.5907 20.2944 19.0802 20.0021L19.0803 20.0023C19.0803 20.0023 22.964 17.76 25.1301 16.5091C25.5206 16.2836 26.0225 16.4186 26.2489 16.8103C26.4756 17.2026 26.3413 17.7046 25.9488 17.9311Z" fill="#5DC563"/>
<path d="M10.7734 12.6875H21.7109C22.164 12.6875 22.5312 12.3202 22.5312 11.8672V11.7578C22.5312 9.55776 21.1565 7.6729 19.221 6.91662C19.9575 6.13771 20.3937 5.07207 20.3392 3.90619C20.2414 1.8151 18.5543 0.116505 16.4638 0.0058726C14.102 -0.119088 12.1406 1.76654 12.1406 4.10158C12.1406 5.19079 12.5682 6.18146 13.2634 6.91662C11.3279 7.6729 9.95312 9.55776 9.95312 11.7578V11.8672C9.95312 12.3202 10.3204 12.6875 10.7734 12.6875ZM16.2422 1.64065C17.5991 1.64065 18.7031 2.74462 18.7031 4.10158C18.7031 5.45854 17.5991 6.56252 16.2422 6.56252C14.8852 6.56252 13.7812 5.45854 13.7812 4.10158C13.7812 2.74462 14.8852 1.64065 16.2422 1.64065ZM15.1484 8.20315H17.3359C19.0526 8.20315 20.4889 9.4264 20.8192 11.0469H11.6652C11.9955 9.4264 13.4318 8.20315 15.1484 8.20315Z" fill="#5DC563"/>
</g>
<defs>
<clipPath id="clip0_20_164">
<rect width="28" height="28" fill="white"/>
</clipPath>
</defs>
</svg>
