<svg width="28" height="28" viewBox="0 0 28 28" fill="none" xmlns="http://www.w3.org/2000/svg">
<g clip-path="url(#clip0_20_168)">
<path d="M27.9684 14.4253L25.9781 7.462C25.8774 7.10987 25.5555 6.86711 25.1893 6.86711H17.3636V3.74C17.3636 3.28696 16.9963 2.91968 16.5433 2.91968H0.820319C0.367284 2.91968 0 3.28696 0 3.74V22.0938C0 22.5468 0.367284 22.9141 0.820319 22.9141H3.26771C3.62368 24.1631 4.77037 25.0803 6.12713 25.0803C7.48382 25.0803 8.63047 24.1631 8.98648 22.9141H19.0153C19.3712 24.1631 20.5179 25.0803 21.8747 25.0803C23.2314 25.0803 24.378 24.1631 24.734 22.9141H27.1797C27.6328 22.9141 28.0001 22.5468 28.0001 22.0938V14.6507C28 14.5744 27.9894 14.4985 27.9684 14.4253ZM25.4993 11.7568L21.2538 11.759V8.50775H24.5706L25.4993 11.7568ZM6.12713 23.4397C5.39168 23.4397 4.79334 22.8359 4.79334 22.0938C4.79334 21.3517 5.39163 20.7479 6.12713 20.7479C6.86252 20.7479 7.46086 21.3517 7.46086 22.0938C7.46086 22.8359 6.86252 23.4397 6.12713 23.4397ZM6.12713 19.1073C4.77037 19.1073 3.62373 20.0245 3.26771 21.2735H1.64064V4.56032H15.7229V21.2735H8.98648C8.63047 20.0245 7.48382 19.1073 6.12713 19.1073ZM21.8746 23.4397C21.1392 23.4397 20.5408 22.8359 20.5408 22.0938C20.5408 21.3517 21.1391 20.7479 21.8746 20.7479C22.61 20.7479 23.2084 21.3517 23.2084 22.0938C23.2084 22.8359 22.6101 23.4397 21.8746 23.4397ZM24.734 21.2735C24.378 20.0245 23.2314 19.1073 21.8746 19.1073C20.5179 19.1073 19.3712 20.0245 19.0152 21.2735H17.3635V8.50775H19.6131V12.5798C19.6131 12.7974 19.6995 13.0061 19.8535 13.1599C20.0073 13.3137 20.2159 13.4001 20.4334 13.4001H20.4338L25.9682 13.3972L26.3593 14.7656V16.3741H25.3968C24.9438 16.3741 24.5765 16.7413 24.5765 17.1944C24.5765 17.6474 24.9438 18.0147 25.3968 18.0147H26.3593V21.2735H24.734Z" fill="#5DC563"/>
<path d="M10.3533 17.4216C10.6071 17.5654 10.9184 17.5633 11.1705 17.4163C11.4225 17.2693 11.5775 16.9995 11.5775 16.7077V12.3011C12.1024 11.6576 12.4179 10.8369 12.4179 9.94364C12.4179 7.88361 10.7419 6.20764 8.68186 6.20764C6.62177 6.20764 4.9458 7.88361 4.9458 9.94364C4.9458 10.8369 5.26124 11.6576 5.78614 12.3011V16.7077C5.78614 16.9995 5.94112 17.2693 6.19318 17.4163C6.32082 17.4907 6.46356 17.528 6.60645 17.528C6.74574 17.528 6.88509 17.4926 7.01043 17.4216L8.68186 16.4759L10.3533 17.4216ZM8.68192 7.84833C9.83731 7.84833 10.7773 8.78831 10.7773 9.9437C10.7773 11.0991 9.83731 12.0391 8.68192 12.0391C7.52647 12.0391 6.58649 11.0991 6.58649 9.9437C6.58649 8.78831 7.52647 7.84833 8.68192 7.84833ZM7.42683 15.301V13.4622C7.81932 13.6026 8.24173 13.6797 8.68192 13.6797C9.1221 13.6797 9.54445 13.6026 9.93695 13.4622V15.301L9.0859 14.8194C8.83532 14.6775 8.52857 14.6775 8.27799 14.8194L7.42683 15.301Z" fill="#5DC563"/>
<path d="M8.66573 10.7642C9.09481 10.7642 9.5059 10.3869 9.48604 9.94385C9.46614 9.4994 9.1256 9.12354 8.66573 9.12354C8.23665 9.12354 7.82557 9.50082 7.84542 9.94385C7.86532 10.3883 8.20586 10.7642 8.66573 10.7642Z" fill="#5DC563"/>
</g>
<defs>
<clipPath id="clip0_20_168">
<rect width="28" height="28" fill="white"/>
</clipPath>
</defs>
</svg>
