<svg width="28" height="28" viewBox="0 0 28 28" fill="none" xmlns="http://www.w3.org/2000/svg">
<path d="M23.0781 16.5744V0.820316C23.0781 0.367283 22.7108 0 22.2578 0H0.820316C0.367283 0 0 0.367283 0 0.820316V22.2578C0 22.7108 0.367283 23.0781 0.820316 23.0781H16.5744C16.9737 25.8571 19.3701 28 22.2578 28C25.424 28 28 25.424 28 22.2578C28 19.3701 25.8571 16.9737 23.0781 16.5744ZM21.4375 10.7187H12.3594V1.64063H16.0781V3.41623C16.0781 3.86927 16.4454 4.23655 16.8984 4.23655C17.3515 4.23655 17.7188 3.86927 17.7188 3.41623V1.64063H21.4375V10.7187H21.4375ZM1.64063 1.64063H5.3594V3.41623C5.3594 3.86927 5.72668 4.23655 6.17971 4.23655C6.63274 4.23655 7.00003 3.86927 7.00003 3.41623V1.64063H10.7188V10.7187H1.64063V1.64063ZM1.64063 12.3594H5.3594V14.135C5.3594 14.588 5.72668 14.9553 6.17971 14.9553C6.63274 14.9553 7.00003 14.588 7.00003 14.135V12.3594H10.7188V21.4375H1.64063V12.3594ZM12.3594 12.3594H16.0781V14.135C16.0781 14.588 16.4454 14.9553 16.8984 14.9553C17.3515 14.9553 17.7188 14.588 17.7188 14.135V12.3594H21.4375V16.5744C18.9265 16.9352 16.9353 18.9264 16.5745 21.4375H12.3594V12.3594H12.3594ZM22.2578 26.3594C19.9962 26.3594 18.1562 24.5194 18.1562 22.2578C18.1562 19.9962 19.9962 18.1562 22.2578 18.1562C24.5194 18.1562 26.3594 19.9962 26.3594 22.2578C26.3594 24.5194 24.5194 26.3594 22.2578 26.3594Z" fill="#5DC563"/>
<path d="M23.344 20.6678L21.7323 22.2794L20.9999 21.547C20.6796 21.2267 20.1602 21.2266 19.8398 21.547C19.5195 21.8673 19.5195 22.3867 19.8398 22.7071L21.1523 24.0195C21.3125 24.1797 21.5225 24.2597 21.7323 24.2597C21.9422 24.2597 22.1522 24.1797 22.3124 24.0194L24.504 21.8278C24.8244 21.5074 24.8244 20.9881 24.504 20.6677C24.1838 20.3474 23.6643 20.3474 23.344 20.6678Z" fill="#5DC563"/>
</svg>
