<svg width="28" height="28" viewBox="0 0 28 28" fill="none" xmlns="http://www.w3.org/2000/svg">
<g clip-path="url(#clip0_20_173)">
<path d="M7.38281 13.7266H4.64844C4.19541 13.7266 3.82812 14.0938 3.82812 14.5469C3.82812 14.9999 4.19541 15.3672 4.64844 15.3672H7.38281C7.83584 15.3672 8.20312 14.9999 8.20312 14.5469C8.20312 14.0938 7.83584 13.7266 7.38281 13.7266Z" fill="#5DC563"/>
<path d="M4.64844 17.0078H1.91406C1.46103 17.0078 1.09375 17.3751 1.09375 17.8281C1.09375 18.2812 1.46103 18.6484 1.91406 18.6484H4.64844C5.10147 18.6484 5.46875 18.2812 5.46875 17.8281C5.46875 17.3751 5.10147 17.0078 4.64844 17.0078Z" fill="#5DC563"/>
<path d="M1.91406 12.0859H4.64844C5.10147 12.0859 5.46875 11.7187 5.46875 11.2656C5.46875 10.8126 5.10147 10.4453 4.64844 10.4453H1.91406C1.46103 10.4453 1.09375 10.8126 1.09375 11.2656C1.09375 11.7187 1.46103 12.0859 1.91406 12.0859Z" fill="#5DC563"/>
<path d="M2.73438 14.5469C2.73438 14.0938 2.36709 13.7266 1.91406 13.7266H0.820312C0.367281 13.7266 0 14.0938 0 14.5469C0 14.9999 0.367281 15.3672 0.820312 15.3672H1.91406C2.36709 15.3672 2.73438 14.9999 2.73438 14.5469Z" fill="#5DC563"/>
<path d="M27.1799 21.3828H11.8674C11.1914 21.3828 10.8056 20.6111 11.2112 20.0703L12.2776 18.6484H24.9922C25.3832 18.6484 25.7198 18.3724 25.7966 17.989L27.9841 7.05152C28.0856 6.54391 27.6973 6.07031 27.1797 6.07031H9.19621L8.52678 3.83879C8.14211 2.5567 6.98438 1.69531 5.64579 1.69531H3.14033C2.69862 1.69531 2.3186 2.03476 2.29782 2.47598C2.27556 2.94705 2.65093 3.33594 3.11715 3.33594H5.64579C6.25424 3.33594 6.7805 3.7275 6.95534 4.31025L10.9626 17.6673L9.89868 19.0859C8.70846 20.6729 9.79029 22.9223 11.7361 23.0198C11.6178 23.3517 11.5681 23.7158 11.6064 24.0956C11.7256 25.2773 12.6936 26.2155 13.8783 26.2985C15.3147 26.3991 16.5156 25.259 16.5156 23.8438C16.5156 23.5562 16.4656 23.2802 16.3745 23.0234H19.9379C19.8202 23.3554 19.771 23.7196 19.81 24.0993C19.931 25.2802 20.8994 26.2166 22.0836 26.2986C23.5191 26.398 24.7188 25.2583 24.7188 23.8437C24.7188 23.5561 24.6687 23.2801 24.5777 23.0234H27.1568C27.5985 23.0234 27.9786 22.6839 27.9994 22.2427C28.0215 21.7717 27.6462 21.3828 27.1799 21.3828ZM20.9498 17.0078H19.21L19.1098 15.0026H21.1002L20.9498 17.0078ZM21.2233 13.362H19.0277L18.9275 11.3567H21.3737L21.2233 13.362ZM23.2923 7.71094H26.1791L25.778 9.71616H23.1419L23.2923 7.71094ZM23.0189 11.3567H25.4499L25.0489 13.362H22.8685L23.0189 11.3567ZM22.7454 15.0026H24.7207L24.3197 17.0078H22.595L22.7454 15.0026ZM21.6471 7.71094L21.4967 9.71616H18.8455L18.7452 7.71094H21.6471ZM17.5673 17.0078H15.8376L15.4867 15.0026H17.4671L17.5673 17.0078ZM17.385 13.362H15.1996L14.8487 11.3567H17.2847L17.385 13.362ZM17.1025 7.71094L17.2027 9.71616H14.5616L14.2107 7.71094H17.1025ZM14.1721 17.0078H12.4775L11.8759 15.0026H13.8211L14.1721 17.0078ZM9.6884 7.71094H12.5451L12.896 9.71616H10.29L9.6884 7.71094ZM10.7822 11.3567H13.1832L13.5341 13.362H11.3838L10.7822 11.3567ZM14.0547 24.6641C13.6023 24.6641 13.2343 24.2961 13.2343 23.8438C13.2343 23.3914 13.6023 23.0234 14.0547 23.0234C14.507 23.0234 14.875 23.3914 14.875 23.8438C14.875 24.2961 14.507 24.6641 14.0547 24.6641ZM22.2578 24.6641C21.8055 24.6641 21.4375 24.2961 21.4375 23.8438C21.4375 23.3914 21.8055 23.0234 22.2578 23.0234C22.7101 23.0234 23.0781 23.3914 23.0781 23.8438C23.0781 24.2961 22.7102 24.6641 22.2578 24.6641Z" fill="#5DC563"/>
</g>
<defs>
<clipPath id="clip0_20_173">
<rect width="28" height="28" fill="white"/>
</clipPath>
</defs>
</svg>
