<svg width="28" height="28" viewBox="0 0 28 28" fill="none" xmlns="http://www.w3.org/2000/svg">
<g clip-path="url(#clip0_20_182)">
<path d="M27.5623 7.04502L14.3826 0.0949492C14.1431 -0.0313242 13.8568 -0.0313242 13.6174 0.0949492L0.437664 7.04502C0.168492 7.18699 0 7.46633 0 7.77067V27.1799C0 27.6329 0.367281 28.0002 0.820312 28.0002H27.1797C27.6327 28.0002 28 27.6329 28 27.1799V7.77067C28 7.46633 27.8315 7.18699 27.5623 7.04502ZM1.64062 13.2337V8.59169L3.2422 8.59514V13.2337H1.64062ZM4.88283 8.59869L6.54817 8.6023V13.2337H4.88283V8.59869ZM8.18874 8.60586L9.85409 8.60946V13.2337H8.18874V8.60586ZM11.4947 8.61302L13.1601 8.61663V13.2337H11.4947V8.61302ZM14.8007 8.62018L16.466 8.62379V13.2338H14.8007V8.62018ZM18.1066 8.62735L19.772 8.63096V13.2338H18.1066V8.62735ZM21.4126 8.63451L23.0779 8.63812V13.2338H21.4126V8.63451ZM24.7185 8.64162L26.3594 8.64518V13.2337H24.7185V8.64162ZM14 1.74799L23.9584 6.99936L4.123 6.95643L14 1.74799ZM7.68824 23.163C8.14127 23.163 8.50856 22.7957 8.50856 22.3426V21.6658H10.0135V26.3596H5.34023V21.6658H6.86793V22.3426C6.86793 22.7957 7.23521 23.163 7.68824 23.163ZM14.0021 23.163C14.4552 23.163 14.8224 22.7957 14.8224 22.3426V21.6658H16.3459V26.3596H11.6726V21.6658H13.1818V22.3426C13.1818 22.7957 13.549 23.163 14.0021 23.163ZM17.9865 26.3596V21.6658H19.5142V22.3426C19.5142 22.7957 19.8815 23.163 20.3345 23.163C20.7875 23.163 21.1548 22.7957 21.1548 22.3426V21.6658H22.6782V26.3596H17.9865ZM24.3189 26.3596V20.8455C24.3189 20.3924 23.9516 20.0252 23.4986 20.0252H4.51992C4.06689 20.0252 3.69961 20.3924 3.69961 20.8455V26.3596H1.64062V14.8744H26.3594V26.3596H24.3189Z" fill="#5DC563"/>
</g>
<defs>
<clipPath id="clip0_20_182">
<rect width="28" height="28" fill="white"/>
</clipPath>
</defs>
</svg>
