<svg width="13" height="13" viewBox="0 0 13 13" fill="none" xmlns="http://www.w3.org/2000/svg">
  <path d="M2.5 0L2 1L1 1.5L2 2L2.5 3L3 2L4 1.5L3 1L2.5 0ZM4 1.5L5 2L5.5 3L6 2L7 1.5L6 1L5.5 0L5 1L4 1.5ZM7 1.5L8 2L8.5 3L9 2L10 1.5L9 1L8.5 0L8 1L7 1.5ZM8.5 3H5.5H2.5H0.5C0.367396 3.00001 0.240227 3.0527 0.146461 3.14646C0.0526959 3.24023 1.32584e-05 3.3674 0 3.5V12.5C1.32584e-05 12.6326 0.0526959 12.7598 0.146461 12.8535C0.240227 12.9473 0.367396 13 0.5 13H10.5C10.6326 13 10.7598 12.9473 10.8535 12.8535C10.9473 12.7598 11 12.6326 11 12.5V12H10.5H10H7V9.5C6.99999 9.3674 6.9473 9.24023 6.85354 9.14646C6.75977 9.0527 6.6326 9.00001 6.5 9H4.5C4.3674 9.00001 4.24023 9.0527 4.14646 9.14646C4.0527 9.24023 4.00001 9.3674 4 9.5V12H1V4H10V5H11V3.5C11 3.3674 10.9473 3.24023 10.8535 3.14646C10.7598 3.0527 10.6326 3.00001 10.5 3H8.5ZM2 5V6H3V5H2ZM4 5V6H5V5H4ZM6 5V6H7V5H6ZM8 5V6H9V5H8ZM10 6V8H8V9H10V11L13 8.5L10 6ZM2 7V8H3V7H2ZM4 7V8H5V7H4ZM6 7V8H7V7H6ZM2 9V10H3V9H2ZM5 10H6V12H5V10Z" fill="url(#paint0_linear)"></path>
  <defs>
    <linearGradient id="paint0_linear" x1="6.5" y1="0" x2="6.5" y2="13" gradientUnits="userSpaceOnUse">
      <stop stop-color="#5DC563"></stop>
      <stop offset="1" stop-color="#48AF4E"></stop>
    </linearGradient>
  </defs>
</svg>