<svg width="13" height="13" viewBox="0 0 13 13" fill="none" xmlns="http://www.w3.org/2000/svg">
  <path d="M6.5 0C2.91406 0 0 2.91406 0 6.5C0 10.0859 2.91406 13 6.5 13C7.71875 13 8.86328 12.6641 9.83984 12.0781L9.32422 11.2188C8.5 11.7148 7.53516 12 6.5 12C3.45703 12 1 9.54297 1 6.5C1 3.45703 3.45703 1 6.5 1C9.54297 1 12 3.45703 12 6.5V7.60156C12 8.375 11.375 9 10.6055 9H10.3984C9.62891 9 9 8.375 9 7.60156V5.39844C9 4.08203 7.91797 3 6.60156 3H6.39844C5.08203 3 4 4.08203 4 5.39844V7.60156C4 8.91797 5.08203 10 6.39844 10H6.60156C7.375 10 8.0625 9.62109 8.5 9.04688C8.94141 9.62109 9.625 10 10.3984 10H10.6055C11.918 10 13 8.92188 13 7.60156V6.5C13 2.91406 10.0859 0 6.5 0ZM6.39844 4H6.60156C7.37109 4 8 4.625 8 5.39844V7.60156C8 8.375 7.37109 9 6.60156 9H6.39844C5.625 9 5 8.375 5 7.60156V5.39844C5 4.625 5.625 4 6.39844 4Z" fill="url(#paint0_linear)"></path>
  <defs>
    <linearGradient id="paint0_linear" x1="6.5" y1="0" x2="6.5" y2="13" gradientUnits="userSpaceOnUse">
      <stop stop-color="#5DC563"></stop>
      <stop offset="1" stop-color="#48AF4E"></stop>
    </linearGradient>
  </defs>
</svg>