<svg width="20" height="20" viewBox="0 0 20 20" fill="none" xmlns="http://www.w3.org/2000/svg">
<path d="M12.2214 4.0021C11.8805 3.9481 11.6479 3.62795 11.7019 3.28702C11.7558 2.94609 12.076 2.71349 12.4169 2.76749C14.4672 3.09222 16.0753 4.70026 16.4 6.75058C16.454 7.0915 16.2214 7.41166 15.8805 7.46565C15.5396 7.51965 15.2194 7.28705 15.1654 6.94612C14.9254 5.43067 13.7368 4.24212 12.2214 4.0021Z" fill="white"/>
<path fill-rule="evenodd" clip-rule="evenodd" d="M10.834 0.208496C15.3213 0.208496 18.959 3.84618 18.959 8.3335C18.959 12.8208 15.3213 16.4585 10.834 16.4585C6.34667 16.4585 2.70898 12.8208 2.70898 8.3335C2.70898 3.84618 6.34667 0.208496 10.834 0.208496ZM17.709 8.3335C17.709 4.53654 14.6309 1.4585 10.834 1.4585C7.03703 1.4585 3.95898 4.53654 3.95898 8.3335C3.95898 12.1305 7.03703 15.2085 10.834 15.2085C14.6309 15.2085 17.709 12.1305 17.709 8.3335Z" fill="white"/>
<path d="M3.72532 14.5583C3.96939 14.3142 4.36512 14.3142 4.6092 14.5583C4.85328 14.8024 4.85328 15.1981 4.60921 15.4422L1.27596 18.7755C1.03189 19.0195 0.636156 19.0195 0.392078 18.7755C0.147999 18.5314 0.147997 18.1357 0.392073 17.8916L3.72532 14.5583Z" fill="white"/>
</svg>
