<svg width="40" height="40" viewBox="0 0 40 40" fill="none" xmlns="http://www.w3.org/2000/svg">
<circle cx="20" cy="20" r="19.5" stroke="#4C4560"/>
<g clip-path="url(#clip0_146_18843)">
<path d="M20.4424 27.8167C20.4426 27.8165 20.4428 27.8163 20.443 27.8161L23.693 24.5504C23.9365 24.3057 23.9356 23.91 23.6909 23.6665C23.4462 23.423 23.0505 23.4239 22.807 23.6686L20.625 25.8612L20.625 12.625C20.625 12.2798 20.3452 12 20 12C19.6548 12 19.375 12.2798 19.375 12.625L19.375 25.8612L17.193 23.6686C16.9495 23.4239 16.5538 23.423 16.3091 23.6665C16.0644 23.91 16.0636 24.3058 16.307 24.5504L19.557 27.8162C19.5572 27.8163 19.5574 27.8165 19.5576 27.8167C19.8019 28.0615 20.1989 28.0607 20.4424 27.8167Z" fill="#4C4560"/>
</g>
<defs>
<clipPath id="clip0_146_18843">
<rect width="16" height="16" fill="white" transform="translate(28 12) rotate(90)"/>
</clipPath>
</defs>
</svg>
