<svg width="48" height="48" viewBox="0 0 48 48" fill="none" xmlns="http://www.w3.org/2000/svg">
<path d="M0 24C0 37.2548 10.7452 48 24 48C37.2548 48 48 37.2548 48 24C48 10.7452 37.2548 0 24 0C10.7452 0 0 10.7452 0 24Z" fill="#891BB4"/>
<g clip-path="url(#clip0_147_25447)">
<path d="M35.1541 25.8935C35.8701 19.8665 34.8101 16.0615 32.8981 14.3405L32.8991 14.3395C29.8131 11.4005 19.3911 10.9655 15.6991 14.4715C14.0411 16.1865 13.4571 18.7035 13.3931 21.8195C13.3291 24.9365 13.2531 30.7755 18.6941 32.3595H18.6991L18.6941 34.7785C18.6941 34.7785 18.6571 35.7585 19.2831 35.9555C19.9991 36.1875 20.3231 35.7325 22.5501 33.0725C26.2741 33.3955 29.1341 32.6555 29.4591 32.5475C30.2111 32.2955 34.4661 31.7325 35.1541 25.8935ZM22.9171 31.3705C22.9171 31.3705 20.5601 34.3095 19.8271 35.0725C19.5871 35.3205 19.3241 35.2975 19.3281 34.8055C19.3281 34.4825 19.3461 30.7895 19.3461 30.7895C14.7331 29.4675 15.0051 24.4955 15.0551 21.8945C15.1051 19.2925 15.5811 17.1615 16.9851 15.7265C20.2241 12.6895 29.3611 13.3685 31.6891 15.5565C34.5351 18.0795 33.5221 25.2075 33.5281 25.4505C32.9431 30.3245 29.4951 30.6335 28.8611 30.8445C28.5901 30.9345 26.0751 31.5815 22.9171 31.3705V31.3705Z" fill="white"/>
<path d="M24.2223 16.2974C23.8373 16.2974 23.8373 16.8974 24.2223 16.9024C27.2093 16.9254 29.6693 19.0074 29.6963 22.8264C29.6963 23.2294 30.2863 23.2244 30.2813 22.8214H30.2803C30.2483 18.7064 27.5623 16.3204 24.2223 16.2974V16.2974Z" fill="white"/>
<path d="M28.151 22.193C28.142 22.591 28.731 22.61 28.736 22.207C28.785 19.938 27.3859 18.069 24.7569 17.872C24.3719 17.844 24.3319 18.449 24.7159 18.477C26.9959 18.65 28.197 20.206 28.151 22.193V22.193Z" fill="white"/>
<path d="M27.5202 24.7741C27.0262 24.4881 26.5232 24.6661 26.3152 24.9471L25.8802 25.5101C25.6592 25.7961 25.2462 25.7581 25.2462 25.7581C22.2322 24.9611 21.4262 21.8071 21.4262 21.8071C21.4262 21.8071 21.3892 21.3801 21.6652 21.1511L22.2092 20.7011C22.4812 20.4851 22.6532 19.9651 22.3762 19.4541C21.6362 18.1171 21.1392 17.6561 20.8862 17.3021C20.6202 16.9691 20.2202 16.8941 19.8042 17.1191H19.7952C18.9302 17.6251 17.9832 18.5721 18.2862 19.5471C18.8032 20.5751 19.7532 23.8521 22.7812 26.3281C24.2042 27.4991 26.4562 28.6991 27.4122 28.9761L27.4212 28.9901C28.3632 29.3041 29.2792 28.3201 29.7682 27.4291V27.4221C29.9852 26.9911 29.9132 26.5831 29.5962 26.3161C29.0342 25.7681 28.1862 25.1631 27.5202 24.7741Z" fill="white"/>
<path d="M25.1693 20.1042C26.1303 20.1602 26.5964 20.6622 26.6464 21.6932C26.6644 22.0962 27.2494 22.0682 27.2314 21.6652C27.1674 20.3192 26.4654 19.5692 25.2013 19.4992C24.8163 19.4762 24.7803 20.0812 25.1693 20.1042V20.1042Z" fill="white"/>
</g>
<defs>
<clipPath id="clip0_147_25447">
<rect width="24" height="24" fill="white" transform="translate(12 12)"/>
</clipPath>
</defs>
</svg>
