<svg width="28" height="28" viewBox="0 0 28 28" fill="none" xmlns="http://www.w3.org/2000/svg">
<g clip-path="url(#clip0_20_786)">
<path d="M27.1625 20.006L20.9412 13.7832C22.1085 11.1331 21.609 7.91978 19.4419 5.75209C16.6183 2.92788 12.0479 2.9275 9.22403 5.75209C6.40709 8.56968 6.40709 13.1542 9.22403 15.9718C11.4625 18.2108 14.743 18.6371 17.3619 17.4264L23.5514 23.6174C24.5493 24.6155 26.1648 24.6156 27.1627 23.6172C28.1579 22.6215 28.1578 21.0016 27.1625 20.006ZM10.3767 14.8193C8.19515 12.6372 8.19515 9.08673 10.3767 6.90459C12.5632 4.71761 16.1023 4.71723 18.2891 6.90459C20.4707 9.08673 20.4707 12.6372 18.2891 14.8193C16.1026 17.0064 12.5635 17.0067 10.3767 14.8193ZM26.0098 22.4648C25.649 22.8258 25.065 22.8259 24.7041 22.4649L18.7907 16.55C19.2767 16.1674 19.7099 15.728 20.0861 15.2335L26.0097 21.1585C26.3698 21.5187 26.3698 22.1047 26.0098 22.4648Z" fill="white"/>
<path d="M0.905843 13.4001H4.38121C4.83132 13.4001 5.19623 13.0352 5.19623 12.585C5.19623 12.1349 4.83132 11.77 4.38121 11.77H0.905843C0.455733 11.77 0.0908203 12.1349 0.0908203 12.585C0.0908203 13.0352 0.455733 13.4001 0.905843 13.4001Z" fill="white"/>
<path d="M0.905843 16.8774H5.68448C6.13459 16.8774 6.4995 16.5124 6.4995 16.0623C6.4995 15.6122 6.13459 15.2473 5.68448 15.2473H0.905843C0.455733 15.2473 0.0908203 15.6122 0.0908203 16.0623C0.0908203 16.5124 0.455733 16.8774 0.905843 16.8774Z" fill="white"/>
<path d="M0.905843 20.3549H9.1599C9.61001 20.3549 9.97492 19.99 9.97492 19.5399C9.97492 19.0898 9.61001 18.7249 9.1599 18.7249H0.905843C0.455733 18.7249 0.0908203 19.0898 0.0908203 19.5399C0.0908203 19.99 0.455733 20.3549 0.905843 20.3549Z" fill="white"/>
<path d="M18.7173 22.2021H0.905843C0.455733 22.2021 0.0908203 22.5671 0.0908203 23.0172C0.0908203 23.4673 0.455733 23.8322 0.905843 23.8322H18.7173C19.1674 23.8322 19.5323 23.4673 19.5323 23.0172C19.5323 22.5671 19.1674 22.2021 18.7173 22.2021Z" fill="white"/>
</g>
<defs>
<clipPath id="clip0_20_786">
<rect width="27.8182" height="27.8182" fill="white" transform="translate(0.0908203 0.0908203)"/>
</clipPath>
</defs>
</svg>
