<svg width="28" height="28" viewBox="0 0 28 28" fill="none" xmlns="http://www.w3.org/2000/svg">
<g clip-path="url(#clip0_20_776)">
<path d="M17.3142 8.83838C14.4681 8.83838 12.1526 11.1539 12.1526 14C12.1526 16.846 14.4681 19.1615 17.3142 19.1615C20.1603 19.1615 22.4757 16.846 22.4757 14C22.4757 11.1539 20.1603 8.83838 17.3142 8.83838ZM17.3142 17.5316C15.3668 17.5316 13.7826 15.9473 13.7826 14C13.7826 12.0526 15.3668 10.4684 17.3142 10.4684C19.2615 10.4684 20.8458 12.0526 20.8458 14C20.8458 15.9473 19.2615 17.5316 17.3142 17.5316Z" fill="white"/>
<path d="M27.2807 11.8482L25.9277 11.5299C25.7413 10.8793 25.481 10.2528 25.1501 9.65782L25.883 8.47392C26.082 8.15238 26.0337 7.73608 25.7663 7.46871L23.8454 5.54779C23.578 5.28037 23.1616 5.23201 22.8402 5.43114L21.6562 6.16403C21.0613 5.83314 20.4347 5.57284 19.7841 5.38642L19.4659 4.03349C19.3792 3.66523 19.0507 3.40503 18.6725 3.40503H15.9558C15.5776 3.40503 15.2491 3.66523 15.1625 4.03333L14.8442 5.38626C14.1936 5.57267 13.567 5.83298 12.9721 6.16386L11.7882 5.43098C11.4666 5.23179 11.0503 5.2802 10.783 5.54763L8.86203 7.46855C8.59461 7.73597 8.54631 8.15221 8.74538 8.47375L9.47827 9.65765C9.14733 10.2526 8.88703 10.8792 8.70061 11.5297L7.34768 11.8481C6.97953 11.9348 6.71933 12.2633 6.71933 12.6415V13.1849H4.70903C4.25894 13.1849 3.89404 13.5498 3.89404 13.9998C3.89404 14.4499 4.25894 14.8148 4.70903 14.8148H6.71933V15.3582C6.71933 15.7364 6.97952 16.0649 7.34763 16.1515L8.70056 16.4698C8.88697 17.1203 9.14728 17.7469 9.47816 18.3419L8.74527 19.5258C8.5462 19.8474 8.59455 20.2637 8.86192 20.531L10.7828 22.452C11.0502 22.7194 11.4666 22.7677 11.788 22.5686L12.972 21.8357C13.5669 22.1667 14.1936 22.4269 14.8441 22.6133L15.1624 23.9663C15.2491 24.3345 15.5776 24.5947 15.9558 24.5947H18.6725C19.0507 24.5947 19.3792 24.3345 19.4658 23.9664L19.7841 22.6134C20.4346 22.427 21.0612 22.1667 21.6562 21.8358L22.8401 22.5687C23.1616 22.7678 23.578 22.7195 23.8453 22.4521L25.7663 20.5311C26.0337 20.2637 26.082 19.8475 25.8829 19.5259L25.15 18.342C25.481 17.747 25.7412 17.1204 25.9276 16.4699L27.2805 16.1516C27.6488 16.0649 27.909 15.7364 27.909 15.3582V12.6415C27.909 12.2633 27.6488 11.9348 27.2807 11.8482ZM26.279 14.7127L25.0739 14.9962C24.77 15.0677 24.5337 15.3065 24.4653 15.6111C24.2824 16.4262 23.9606 17.2013 23.5086 17.9147C23.3416 18.1784 23.3398 18.5143 23.5041 18.7797L24.1573 19.8349L23.1492 20.843L22.094 20.1898C21.8286 20.0255 21.4926 20.0272 21.229 20.1943C20.5156 20.6463 19.7405 20.9681 18.9254 21.151C18.6208 21.2194 18.382 21.4557 18.3105 21.7596L18.027 22.9647H16.6013L16.3177 21.7596C16.2462 21.4557 16.0074 21.2194 15.7029 21.151C14.8878 20.9681 14.1127 20.6462 13.3993 20.1943C13.1355 20.0273 12.7996 20.0255 12.5343 20.1898L11.4791 20.843L10.471 19.8349L11.1242 18.7797C11.2885 18.5143 11.2867 18.1784 11.1197 17.9147C10.6677 17.2013 10.3458 16.4262 10.163 15.6111C10.0946 15.3065 9.85827 15.0677 9.55439 14.9962L8.3493 14.7127V13.287L9.55439 13.0034C9.85827 12.9319 10.0946 12.6932 10.163 12.3886C10.3459 11.5734 10.6678 10.7984 11.1197 10.085C11.2867 9.8213 11.2885 9.48537 11.1242 9.2199L10.471 8.16482L11.4791 7.15673L12.5343 7.80986C12.7996 7.97417 13.1356 7.97243 13.3993 7.80536C14.1127 7.35347 14.8877 7.03155 15.7029 6.84867C16.0074 6.78032 16.2462 6.54397 16.3177 6.24009L16.6013 5.035H18.0269L18.3105 6.24009C18.382 6.54397 18.6208 6.78032 18.9254 6.84867C19.7406 7.03161 20.5156 7.35347 21.229 7.80536C21.4927 7.97237 21.8286 7.97417 22.094 7.80986L23.1492 7.15673L24.1573 8.16482L23.5041 9.2199C23.3398 9.48537 23.3416 9.8213 23.5086 10.085C23.9606 10.7984 24.2824 11.5735 24.4653 12.3886C24.5337 12.6932 24.77 12.9319 25.0739 13.0034L26.279 13.287V14.7127Z" fill="white"/>
<path d="M4.7091 16.4448H1.99248C1.54239 16.4448 1.17749 16.8097 1.17749 17.2598C1.17749 17.7099 1.54239 18.0748 1.99248 18.0748H4.7091C5.15918 18.0748 5.52408 17.7099 5.52408 17.2598C5.52408 16.8097 5.15918 16.4448 4.7091 16.4448Z" fill="white"/>
<path d="M1.99248 11.5548H4.7091C5.15918 11.5548 5.52408 11.1899 5.52408 10.7398C5.52408 10.2897 5.15918 9.9248 4.7091 9.9248H1.99248C1.54239 9.9248 1.17749 10.2897 1.17749 10.7398C1.17749 11.1899 1.54239 11.5548 1.99248 11.5548Z" fill="white"/>
<path d="M2.80744 13.9998C2.80744 13.5497 2.44254 13.1848 1.99245 13.1848H0.905806C0.455717 13.1848 0.0908203 13.5497 0.0908203 13.9998C0.0908203 14.4499 0.455717 14.8148 0.905806 14.8148H1.99245C2.44254 14.8148 2.80744 14.4499 2.80744 13.9998Z" fill="white"/>
</g>
<defs>
<clipPath id="clip0_20_776">
<rect width="27.8182" height="27.8182" fill="white" transform="translate(0.0908203 0.0908203)"/>
</clipPath>
</defs>
</svg>
