<svg width="28" height="28" viewBox="0 0 28 28" fill="none" xmlns="http://www.w3.org/2000/svg">
<g clip-path="url(#clip0_20_770)">
<path d="M22.6159 0.036377H17.5812C16.4069 0.036377 15.4517 0.991652 15.4517 2.16574V7.20063C15.4517 8.37472 16.4069 9.32999 17.5812 9.32999H22.6159C23.79 9.32999 24.7453 8.37472 24.7453 7.20063V2.16574C24.7455 0.991652 23.7902 0.036377 22.6159 0.036377ZM23.1155 7.20063C23.1155 7.4759 22.8914 7.70002 22.6159 7.70002H17.5812C17.3058 7.70002 17.0818 7.4759 17.0818 7.20063V2.16574C17.0818 1.89047 17.3058 1.66635 17.5812 1.66635H22.6159C22.8914 1.66635 23.1155 1.89047 23.1155 2.16574V7.20063Z" fill="white"/>
<path d="M18.7156 11.3647C18.3244 11.3647 17.9558 11.4617 17.6321 11.633C17.2151 11.0081 16.5039 10.596 15.698 10.596C15.2818 10.596 14.8909 10.7059 14.5526 10.8984C14.1291 10.3235 13.4477 9.94972 12.6804 9.94972C12.4389 9.94972 12.2059 9.98665 11.9866 10.0554V9.32999H12.1802C13.3545 9.32999 14.3098 8.37472 14.3098 7.20041V2.16574C14.3098 0.991653 13.3545 0.036377 12.1802 0.036377H7.14551C5.97142 0.036377 5.01614 0.991653 5.01614 2.16574V7.20063C5.01614 8.37472 5.97142 9.32999 7.14551 9.32999H7.33928V14.3787C7.21321 14.2524 7.07165 14.1397 6.9163 14.0431C6.41563 13.7322 5.82858 13.624 5.253 13.7347C4.63391 13.7596 4.07848 14.0298 3.71768 14.4846C3.33863 14.9623 3.20704 15.6029 3.35624 16.2421L4.4274 20.8258C5.03822 24.6501 8.02141 27.5112 8.14854 27.6316C8.29986 27.7748 8.50043 27.8546 8.70884 27.8546H17.8753C18.1498 27.8546 18.4055 27.7165 18.5564 27.4872C20.1798 25.0177 21.0383 22.1503 21.0385 19.1952L21.0393 13.6885C21.0393 13.6885 21.0393 13.6885 21.0393 13.6883C21.0393 12.407 19.9968 11.3647 18.7156 11.3647ZM9.05118 26.2246C8.39431 25.526 6.45871 23.2699 6.03276 20.5435C6.02957 20.5233 6.02575 20.5034 6.02108 20.4839L4.94335 15.8713C4.90748 15.7172 4.92552 15.5844 4.9945 15.4976C5.06326 15.4108 5.18126 15.3654 5.33874 15.3503C5.41791 15.3429 5.4508 15.3335 5.52424 15.3291C5.7091 15.3178 5.89862 15.3299 6.0561 15.4278C6.21358 15.5256 6.32331 15.6788 6.36554 15.8592L7.29514 19.8378C7.37282 20.17 7.64915 20.4187 7.98745 20.4612L8.05282 20.4692C8.2848 20.4983 8.51804 20.4263 8.69335 20.2716C8.86866 20.1169 8.96905 19.8943 8.96905 19.6606V6.70803C8.96905 6.32536 9.28018 6.01423 9.66285 6.01423C10.0453 6.01423 10.3566 6.32536 10.3566 6.70803V14.3504C10.3566 14.8004 10.7215 15.1654 11.1716 15.1654C11.6218 15.1654 11.9866 14.8004 11.9866 14.3504V12.2735C11.9866 11.8908 12.2978 11.5797 12.6804 11.5797C13.0629 11.5797 13.3742 11.8908 13.3742 12.2735V14.4432C13.3742 14.8933 13.7391 15.2582 14.1892 15.2582C14.6394 15.2582 15.0042 14.8933 15.0042 14.4432V12.9198C15.0042 12.5373 15.3155 12.226 15.698 12.226C16.0807 12.226 16.3918 12.5373 16.3918 12.9198V15.0124C16.3918 15.4624 16.7566 15.8274 17.2068 15.8274C17.6569 15.8274 18.0218 15.4624 18.0218 15.0124V13.6885C18.0218 13.3058 18.3331 12.9945 18.7156 12.9945C19.0982 12.9945 19.4094 13.3058 19.4094 13.6883L19.4085 19.195C19.4083 21.686 18.7245 24.1069 17.4273 26.2246H9.05118ZM6.64612 7.20063V2.16574C6.64612 1.89047 6.87024 1.66635 7.14551 1.66635H12.1802C12.4557 1.66635 12.6798 1.89047 12.6798 2.16574V7.20063C12.6798 7.4759 12.4557 7.70002 12.1802 7.70002H11.9866V6.70781C11.9866 5.42654 10.9441 4.38404 9.66285 4.38404C8.38158 4.38404 7.33907 5.42654 7.33907 6.70781V7.70002H7.14551C6.87024 7.70002 6.64612 7.4759 6.64612 7.20063Z" fill="white"/>
</g>
<defs>
<clipPath id="clip0_20_770">
<rect width="27.8182" height="27.8182" fill="white" transform="translate(0.0908203 0.0908203)"/>
</clipPath>
</defs>
</svg>
