<svg width="12" height="12" viewBox="0 0 12 12" fill="none" xmlns="http://www.w3.org/2000/svg">
<g clip-path="url(#clip0_142_1400)">
<path d="M8.44147 9.03543L11.2839 11.8778C11.3647 11.9587 11.4726 12.0004 11.5804 12.0004C11.6882 12.0004 11.796 11.9587 11.8769 11.8778C12.041 11.7137 12.041 11.4466 11.8769 11.2824L9.03446 8.44C9.79407 7.54562 10.2523 6.38905 10.2523 5.12712C10.2523 2.29941 7.9514 0.000976562 5.12614 0.000976562C2.30088 0.000976562 0 2.29943 0 5.12717C0 7.9549 2.30088 10.2533 5.12859 10.2533C6.39052 10.2533 7.54709 9.79504 8.44147 9.03543ZM0.840472 5.12717C0.840472 2.76258 2.764 0.841497 5.12614 0.841497C7.48828 0.841497 9.41181 2.76503 9.41181 5.12717C9.41181 7.48931 7.48828 9.41284 5.12614 9.41284C2.764 9.41284 0.840472 7.48926 0.840472 5.12717Z" fill="#5DC563"/>
</g>
<defs>
<clipPath id="clip0_142_1400">
<rect width="12" height="12" fill="white"/>
</clipPath>
</defs>
</svg>
