<svg width="12" height="12" viewBox="0 0 12 12" fill="none" xmlns="http://www.w3.org/2000/svg">
<g clip-path="url(#clip0_142_1410)">
<path d="M11.7612 11.5812V3.3502C11.7612 3.33796 11.7612 3.32326 11.7588 3.31102C11.7588 3.30612 11.7588 3.30122 11.7563 3.29633C11.7563 3.28898 11.7539 3.28163 11.7539 3.27184C11.7539 3.26694 11.7514 3.25959 11.749 3.25469C11.7465 3.24735 11.7465 3.24245 11.7441 3.2351C11.7416 3.2302 11.7416 3.22286 11.7392 3.21796C11.7367 3.21306 11.7343 3.20571 11.7318 3.20082C11.7294 3.19592 11.7269 3.18857 11.7245 3.18367C11.722 3.17633 11.7196 3.17143 11.7147 3.16408C11.7122 3.15673 11.7073 3.15184 11.7049 3.14449C11.7 3.13469 11.6951 3.12735 11.6877 3.11755C11.6853 3.11265 11.6829 3.1102 11.678 3.10531C11.6755 3.10041 11.6706 3.09551 11.6682 3.09061L9.36367 0.159184C9.28285 0.0587755 9.16285 0 9.03306 0H2.96938C2.83959 0 2.71959 0.0587755 2.63877 0.159184L0.331831 3.08816C0.326933 3.09306 0.324484 3.09796 0.322035 3.10286C0.319586 3.10775 0.317137 3.1102 0.312239 3.1151C0.307341 3.1249 0.299994 3.13224 0.295096 3.14204C0.292647 3.14939 0.287749 3.15429 0.2853 3.16163C0.282851 3.16898 0.277953 3.17388 0.275504 3.18122C0.273055 3.18612 0.270606 3.19347 0.268157 3.19837C0.265708 3.20326 0.263259 3.21061 0.26081 3.21551C0.258361 3.22041 0.255912 3.22775 0.255912 3.23265C0.253463 3.24 0.253463 3.2449 0.251014 3.25224C0.248565 3.25714 0.248565 3.26449 0.246116 3.26939C0.243667 3.27673 0.243667 3.28408 0.243667 3.29388C0.243667 3.29877 0.241219 3.30367 0.241219 3.30857C0.241219 3.32082 0.23877 3.33551 0.23877 3.34775V11.5788C0.23877 11.8114 0.427341 12 0.657545 12H11.3375C11.5726 12 11.7612 11.8114 11.7612 11.5812ZM10.4755 2.92898H6.41999V0.84H8.82734L10.4755 2.92898ZM3.17265 0.84H5.57999V2.92898H1.52693L3.17265 0.84ZM1.08122 11.16V3.76898H10.9212V11.16H1.08122Z" fill="#5DC563"/>
</g>
<defs>
<clipPath id="clip0_142_1410">
<rect width="12" height="12" fill="white"/>
</clipPath>
</defs>
</svg>
