<svg width="12" height="12" viewBox="0 0 12 12" fill="none" xmlns="http://www.w3.org/2000/svg">
<g clip-path="url(#clip0_142_1420)">
<path d="M5.99903 7.80663C6.30551 7.80172 6.59237 7.76004 6.85472 7.68158C7.13178 8.23815 7.9654 9.07913 10.4221 9.697C11.143 9.88089 11.1871 10.7881 11.1503 11.3128C11.1332 11.5432 11.3097 11.7443 11.5402 11.7614C11.55 11.7614 11.5598 11.7614 11.5696 11.7614C11.7878 11.7614 11.9742 11.5923 11.9889 11.3716C12.082 10.0329 11.5868 9.12572 10.6257 8.88053C8.38222 8.31661 7.77661 7.61784 7.61479 7.31136C7.77171 7.19857 7.91882 7.06862 8.05122 6.91661C9.16926 5.65636 8.98782 3.50365 8.96575 3.29034C8.83581 0.495237 6.64631 0.2476 5.97696 0.237793H5.9598C5.95489 0.237793 5.94999 0.237793 5.94263 0.237793H5.92792C4.54753 0.252504 3.03965 1.06406 2.93177 3.29034C2.9097 3.50365 2.72827 5.65636 3.84631 6.91661C3.99832 7.08824 4.16995 7.2378 4.35384 7.36039C4.15524 7.67913 3.49815 8.34848 1.3724 8.88053C0.41373 9.12327 -0.083994 10.0329 0.0116278 11.3692C0.0263389 11.5898 0.212679 11.759 0.430893 11.759C0.4407 11.759 0.450507 11.759 0.460315 11.759C0.690788 11.7418 0.867321 11.5408 0.850158 11.3103C0.81338 10.7856 0.859965 9.87843 1.57835 9.69455C3.96645 9.0963 4.82704 8.27983 5.12862 7.70365C5.3689 7.7674 5.62635 7.80172 5.90095 7.80663H5.99903ZM5.93773 6.96565C5.31251 6.95829 4.8344 6.75969 4.47643 6.36004C3.5717 5.34253 3.76785 3.38596 3.76785 3.36634C3.76785 3.35654 3.7703 3.34918 3.7703 3.33937C3.85857 1.39261 5.1654 1.08613 5.93773 1.07877H5.94999H5.9647C6.73458 1.08858 8.04141 1.39751 8.12968 3.33937C8.12968 3.34673 8.12968 3.35654 8.13213 3.36389C8.13458 3.38351 8.33073 5.34007 7.42354 6.35759C7.06558 6.75969 6.58992 6.95584 5.96225 6.96319H5.93773V6.96565Z" fill="#5DC563"/>
</g>
<defs>
<clipPath id="clip0_142_1420">
<rect width="12" height="12" fill="white"/>
</clipPath>
</defs>
</svg>
