<?xml version="1.0" standalone="no"?>
<!DOCTYPE svg PUBLIC "-//W3C//DTD SVG 20010904//EN"
 "http://www.w3.org/TR/2001/REC-SVG-20010904/DTD/svg10.dtd">
<svg version="1.0" xmlns="http://www.w3.org/2000/svg"
 width="120.000000pt" height="120.000000pt" viewBox="0 0 120.000000 120.000000"
 preserveAspectRatio="xMidYMid meet">
<metadata>
Created by potrace 1.16, written by Peter Selinger 2001-2019
</metadata>
<g transform="translate(0.000000,120.000000) scale(0.100000,-0.100000)"
fill="#000000" stroke="none">
<path d="M20 1078 c0 -7 10 -80 21 -163 26 -194 48 -374 49 -403 0 -13 4 -21
8 -18 8 5 211 -8 322 -20 l55 -6 -160 -54 c-88 -29 -167 -55 -175 -56 -9 -2
-17 8 -22 27 -6 25 -7 24 -3 -9 19 -171 29 -243 38 -254 7 -9 113 -12 468 -12
252 0 468 4 481 9 55 21 98 296 67 431 -21 95 -92 161 -320 299 -253 153 -397
211 -571 230 -136 15 -258 14 -258 -1z m360 -53 c113 -24 212 -68 352 -157 47
-31 55 -41 71 -90 27 -85 25 -91 -25 -84 -24 3 -169 11 -323 17 -154 6 -283
14 -286 18 -4 3 -18 60 -33 126 -15 66 -29 128 -32 137 -3 10 4 26 17 39 20
20 27 21 108 14 47 -4 115 -13 151 -20z"/>
</g>
</svg>
