<svg width="24" height="24" viewBox="0 0 24 24" fill="none" xmlns="http://www.w3.org/2000/svg">
<path d="M22.7069 20.6218L19.7045 14.3162L21.0883 12.9709C21.2543 12.8096 21.3302 12.5768 21.2913 12.3487L20.8377 9.68591L21.2913 7.02308C21.3302 6.7949 21.2543 6.56221 21.0883 6.40086L19.1518 4.51822L17.9482 2.10055C17.8454 1.89411 17.6479 1.75119 17.4197 1.71805L14.7472 1.33021L12.3538 0.0799102C12.1498 -0.0266367 11.9067 -0.0266367 11.7027 0.0799102L9.30933 1.33016L6.6368 1.718C6.40857 1.75114 6.21113 1.89407 6.10838 2.1005L4.90472 4.51818L2.96818 6.40082C2.80219 6.56216 2.7263 6.79489 2.76516 7.02304L3.21882 9.68586L2.76516 12.3487C2.7263 12.5769 2.80224 12.8096 2.96818 12.9709L4.28832 14.2543L1.29047 20.6835C1.17708 20.9267 1.21201 21.2133 1.38052 21.4221C1.54904 21.631 1.8219 21.7257 2.08346 21.6663L4.93341 21.019L6.26954 23.6183C6.39015 23.8529 6.63174 23.9999 6.8948 23.9999C6.89935 23.9999 6.90385 23.9999 6.9084 23.9998C7.17671 23.9946 7.41873 23.8372 7.53212 23.594L9.96226 18.3825L11.7027 19.2917C11.8047 19.345 11.9165 19.3716 12.0283 19.3716C12.1401 19.3716 12.2519 19.345 12.3538 19.2917L14.053 18.4041L16.4872 23.5335C16.6019 23.7752 16.8438 23.9308 17.1113 23.9351C17.115 23.9351 17.1187 23.9352 17.1225 23.9352C17.3856 23.9352 17.6272 23.7881 17.7478 23.5535L19.0783 20.9651L21.9163 21.6096C22.1789 21.6693 22.4527 21.5736 22.621 21.3633C22.7893 21.153 22.8226 20.865 22.7069 20.6218ZM6.8641 21.6991L5.9348 19.8912C5.78808 19.6058 5.46671 19.456 5.15372 19.527L3.17147 19.9772L5.24344 15.5338L6.10843 17.2712C6.21118 17.4776 6.40866 17.6205 6.63685 17.6537L8.61647 17.941L6.8641 21.6991ZM12.0283 17.8753L9.8544 16.7397C9.78418 16.703 9.70824 16.6784 9.62982 16.6671L7.20319 16.3148L6.11021 14.1195C6.07487 14.0485 6.02776 13.984 5.9709 13.9287L4.2136 12.2203L4.62526 9.80389C4.63857 9.72575 4.63857 9.64588 4.62526 9.56774L4.21355 7.15133L5.97085 5.44293C6.02771 5.38761 6.07482 5.32311 6.11016 5.25214L7.20315 3.0568L9.62977 2.70463C9.70819 2.69324 9.78413 2.66868 9.85435 2.63202L12.0282 1.49638L14.2021 2.63202C14.2723 2.66868 14.3483 2.69324 14.4267 2.70463L16.8533 3.0568L17.9462 5.25214C17.9816 5.32316 18.0287 5.38766 18.0856 5.44293L19.8429 7.15133L19.4312 9.56774C19.4179 9.64588 19.4179 9.72575 19.4312 9.80389L19.8429 12.2203L18.0856 13.9287C18.0287 13.984 17.9816 14.0485 17.9462 14.1195L16.8533 16.3148L14.4267 16.6671C14.3483 16.6784 14.2723 16.703 14.2021 16.7397L12.0283 17.8753ZM18.858 19.4731C18.545 19.4021 18.2236 19.5519 18.0769 19.8373L17.1476 21.6451L15.393 17.9478L17.4197 17.6536C17.6479 17.6205 17.8454 17.4776 17.9481 17.2711L18.7689 15.6224L20.8139 19.9173L18.858 19.4731Z" fill="#5DC563"/>
<path d="M18.1221 9.68575C18.1221 6.3161 15.3884 3.57471 12.0283 3.57471C8.66823 3.57471 5.93457 6.3161 5.93457 9.68575C5.93457 13.0554 8.66823 15.7968 12.0283 15.7968C15.3884 15.7968 18.1221 13.0554 18.1221 9.68575ZM12.0283 14.3906C9.44363 14.3906 7.34082 12.28 7.34082 9.68575C7.34082 7.0915 9.44363 4.98096 12.0283 4.98096C14.613 4.98096 16.7158 7.0915 16.7158 9.68575C16.7158 12.28 14.613 14.3906 12.0283 14.3906Z" fill="#5DC563"/>
<path d="M14.457 8.51711L13.3028 8.15397L12.6007 7.16846C12.4688 6.98326 12.2554 6.87329 12.028 6.87329C11.8007 6.87329 11.5873 6.98326 11.4554 7.16846L10.7533 8.15397L9.59908 8.51711C9.38214 8.58536 9.21161 8.7543 9.14135 8.97053C9.07108 9.18677 9.10975 9.42367 9.24513 9.60639L9.9655 10.5786L9.95416 11.7885C9.95205 12.0159 10.06 12.2303 10.244 12.3639C10.428 12.4976 10.6653 12.534 10.8808 12.4617L12.028 12.077L13.1752 12.4617C13.2482 12.4862 13.3237 12.4982 13.3987 12.4982C13.5453 12.4982 13.6904 12.4523 13.8121 12.3639C13.996 12.2302 14.104 12.0158 14.1019 11.7885L14.0905 10.5785L14.8109 9.6063C14.9462 9.42358 14.9849 9.18667 14.9147 8.97044C14.8444 8.7543 14.6739 8.58536 14.457 8.51711ZM12.8204 9.93086C12.7293 10.0538 12.6808 10.2031 12.6822 10.356L12.6865 10.8147L12.2516 10.6689C12.1791 10.6446 12.1036 10.6324 12.0281 10.6324C11.9526 10.6324 11.8771 10.6446 11.8045 10.6689L11.3696 10.8147L11.374 10.356C11.3754 10.2031 11.3269 10.0538 11.2358 9.93086L10.9627 9.56233L11.4003 9.42466C11.5462 9.37877 11.6732 9.28647 11.7619 9.16188L12.028 8.78828L12.2942 9.16188C12.3829 9.28647 12.5099 9.37872 12.6558 9.42466L13.0934 9.56233L12.8204 9.93086Z" fill="#5DC563"/>
</svg>
