<svg width="24" height="24" viewBox="0 0 24 24" fill="none" xmlns="http://www.w3.org/2000/svg">
<g clip-path="url(#clip0_20_123)">
<path d="M21.4362 2.56336C18.0234 -0.849545 12.4702 -0.849592 9.05726 2.56336C7.40394 4.21662 6.49349 6.41475 6.49349 8.75284C6.49349 10.855 7.22984 12.8437 8.57995 14.4253L7.55934 15.4458L6.80124 14.6877C6.52668 14.4132 6.08144 14.4132 5.80683 14.6877L0.72477 19.7698C0.603967 19.8906 0.498259 20.0208 0.407692 20.1582C0.339767 20.2612 0.280279 20.3682 0.229324 20.4782C0.212354 20.5149 0.196275 20.5519 0.181181 20.5892C-0.181181 21.4844 0 22.55 0.724723 23.2748C1.44945 23.9996 0.72477 23.2749 0.72477 23.2749C1.05699 23.607 1.46079 23.825 1.88695 23.9288C2.08065 23.976 2.27899 23.9996 2.47732 23.9996C3.112 23.9996 3.74667 23.758 4.22983 23.2748L9.31185 18.1928C9.58645 17.9182 9.58645 17.473 9.31185 17.1983L8.55375 16.4403L9.5745 15.4195C11.2036 16.8076 13.2251 17.502 15.2468 17.502C17.4883 17.502 19.7299 16.6488 21.4363 14.9423C23.0896 13.289 24 11.0909 24 8.7528C24 6.4147 23.0896 4.21658 21.4362 2.56336ZM1.71918 22.2804C1.30117 21.8623 1.30117 21.1822 1.71918 20.7642L2.3809 20.1025L3.89714 21.6187L3.23542 22.2804C2.81737 22.6984 2.13723 22.6984 1.71918 22.2804ZM4.89151 20.6243L3.37526 19.1081L6.30401 16.1794L7.82021 17.6956L4.89151 20.6243ZM20.4418 13.9479C17.5773 16.8124 12.9163 16.8125 10.0517 13.9479C8.664 12.5603 7.89981 10.7153 7.89981 8.75284C7.89981 6.79042 8.66405 4.94538 10.0517 3.55776C12.9162 0.693186 17.5773 0.69328 20.4418 3.55776C21.8295 4.94542 22.5937 6.79042 22.5937 8.75284C22.5937 10.7153 21.8295 12.5603 20.4418 13.9479Z" fill="#5DC563"/>
<path d="M18.6204 4.67358H11.8733C11.485 4.67358 11.1702 4.98841 11.1702 5.37674V12.126C11.1702 12.5144 11.485 12.8292 11.8733 12.8292H18.6204C19.0088 12.8292 19.3236 12.5144 19.3236 12.126V5.37674C19.3236 4.98841 19.0088 4.67358 18.6204 4.67358ZM17.9173 11.4229H12.5765V6.0799H14.546V6.97202C14.546 7.36035 14.8608 7.67518 15.2491 7.67518C15.6375 7.67518 15.9523 7.36035 15.9523 6.97202V6.0799H17.9173V11.4229Z" fill="#5DC563"/>
</g>
<defs>
<clipPath id="clip0_20_123">
<rect width="24" height="24" fill="white"/>
</clipPath>
</defs>
</svg>
