<svg width="24" height="24" viewBox="0 0 24 24" fill="none" xmlns="http://www.w3.org/2000/svg">
<g clip-path="url(#clip0_20_140)">
<path d="M23.2969 9.57137H22.5393V1.16162C22.5393 0.773309 22.2245 0.458496 21.8362 0.458496H13.406C13.0177 0.458496 12.7029 0.773309 12.7029 1.16162V9.57132H11.2971V4.22139C11.2971 3.83307 10.9823 3.51826 10.594 3.51826H2.16384C1.77553 3.51826 1.46072 3.83307 1.46072 4.22139V9.57137H0.703125C0.314812 9.57137 0 9.88618 0 10.2745V22.8386C0 23.2269 0.314812 23.5417 0.703125 23.5417H23.2969C23.6852 23.5417 24 23.2269 24 22.8386V10.2745C24 9.88614 23.6852 9.57137 23.2969 9.57137ZM18.1252 22.1355H5.8748C5.44697 19.8849 3.65953 18.111 1.40625 17.6999V15.4132C3.65541 15.0029 5.44027 13.2347 5.87231 10.99H18.1276C18.5597 13.2347 20.3445 15.0028 22.5937 15.4132V17.6999C20.3405 18.111 18.553 19.8849 18.1252 22.1355ZM22.5938 13.9757C21.1206 13.6106 19.9531 12.4574 19.5688 10.99L22.5938 10.9776V13.9757ZM14.1091 4.92451H21.133V6.55098H14.1091V4.92451ZM14.1091 1.86475H21.133V3.49121H14.1091V1.86475ZM14.1091 7.95723H21.133V9.57137H14.1091V7.95723ZM2.86697 4.92451H9.89086V6.55098H2.86697V4.92451ZM2.86697 7.95723H9.89086V9.57137H2.86697V7.95723ZM1.40625 10.9776L4.43119 10.99C4.04686 12.4574 2.87944 13.6106 1.40625 13.9757V10.9776ZM1.40625 22.1355V19.1374C2.88366 19.5035 4.0537 20.662 4.43461 22.1355H1.40625ZM22.5938 22.1355H19.5654C19.9463 20.662 21.1164 19.5035 22.5938 19.1374V22.1355Z" fill="#5DC563"/>
<path d="M12 13.9402C10.4282 13.9402 9.14941 15.219 9.14941 16.7908C9.14941 18.3626 10.4282 19.6414 12 19.6414C13.5718 19.6414 14.8506 18.3626 14.8506 16.7908C14.8506 15.219 13.5718 13.9402 12 13.9402ZM12 18.2352C11.2036 18.2352 10.5557 17.5872 10.5557 16.7908C10.5557 15.9944 11.2036 15.3464 12 15.3464C12.7964 15.3464 13.4444 15.9944 13.4444 16.7908C13.4444 17.5872 12.7964 18.2352 12 18.2352Z" fill="#5DC563"/>
</g>
<defs>
<clipPath id="clip0_20_140">
<rect width="24" height="24" fill="white"/>
</clipPath>
</defs>
</svg>
