<svg width="24" height="24" viewBox="0 0 24 24" fill="none" xmlns="http://www.w3.org/2000/svg">
<g clip-path="url(#clip0_20_117)">
<path d="M23.9987 11.9774C23.9982 10.815 23.0521 9.86935 21.8897 9.86935H16.1354V6.07876C16.1354 5.69051 15.8206 5.37574 15.4323 5.37574H13.4216C12.9994 2.73514 10.7252 0.711914 7.99124 0.711914C5.25727 0.711914 2.98312 2.73514 2.56084 5.37574H0.703012C0.314762 5.37574 0 5.69051 0 6.07876V21.1792C0 21.5674 0.314762 21.8822 0.703012 21.8822H3.97455C4.26475 22.7005 5.04618 23.2882 5.96267 23.2882C6.87916 23.2882 7.66058 22.7005 7.95079 21.8822H14.8503C15.1405 22.7005 15.9219 23.2882 16.8384 23.2882C17.7549 23.2882 18.5363 22.7005 18.8265 21.8822H23.297C23.4835 21.8822 23.6623 21.8081 23.7942 21.6762C23.926 21.5443 24.0001 21.3655 24 21.1791L23.9987 11.9774ZM21.8897 11.2754C21.9381 11.2754 21.9854 11.2803 22.0311 11.2897C22.3511 11.3553 22.5926 11.639 22.5927 11.978V11.9781L22.593 13.9584H19.4161V11.2754H21.8897ZM7.99124 2.11794C10.2492 2.11794 12.0862 3.9775 12.0862 6.26318C12.0862 9.22591 9.09356 11.873 7.99128 12.7474C6.88858 11.8727 3.89628 9.22567 3.89628 6.26318C3.89628 3.9775 5.7333 2.11794 7.99124 2.11794ZM3.97455 20.4762H1.40602V6.78177H2.51402C2.8757 10.8855 7.39035 14.0676 7.59024 14.2064C7.71078 14.2901 7.85101 14.332 7.99124 14.332C8.13146 14.332 8.27169 14.2901 8.39223 14.2064C8.59212 14.0676 13.1068 10.8855 13.4685 6.78177H14.7293V20.4762H7.95079C7.66058 19.6579 6.87916 19.0701 5.96267 19.0701C5.04618 19.0701 4.26475 19.658 3.97455 20.4762ZM5.96267 21.8822C5.57503 21.8822 5.25966 21.5669 5.25966 21.1792C5.25966 20.7916 5.57503 20.4762 5.96267 20.4762C6.35031 20.4762 6.66568 20.7916 6.66568 21.1792C6.66568 21.5669 6.35031 21.8822 5.96267 21.8822ZM16.8384 21.8822C16.4507 21.8822 16.1354 21.5669 16.1354 21.1792C16.1354 20.7916 16.4507 20.4762 16.8384 20.4762C17.226 20.4762 17.5414 20.7916 17.5414 21.1792C17.5414 21.5669 17.2261 21.8822 16.8384 21.8822ZM18.8265 20.4762C18.5363 19.658 17.7549 19.0702 16.8384 19.0702C16.5919 19.0702 16.3554 19.1131 16.1354 19.1911V17.6611H17.157C17.5452 17.6611 17.86 17.3463 17.86 16.9581C17.86 16.5698 17.5452 16.255 17.157 16.255H16.1354V11.2754H18.0101V14.6614C18.0101 15.0497 18.3248 15.3644 18.7131 15.3644H22.5931L22.5938 20.4762H18.8265V20.4762Z" fill="#5DC563"/>
<path d="M10.2096 6.15955C10.2096 4.93645 9.21453 3.94141 7.99139 3.94141C6.76824 3.94141 5.77319 4.93645 5.77319 6.15955C5.77319 7.3827 6.76824 8.37774 7.99139 8.37774C9.21453 8.37774 10.2096 7.3827 10.2096 6.15955ZM7.17927 6.15955C7.17927 5.71173 7.54357 5.34743 7.99143 5.34743C8.4393 5.34743 8.8036 5.71173 8.8036 6.15955C8.8036 6.60741 8.4393 6.97171 7.99143 6.97171C7.54357 6.97171 7.17927 6.60741 7.17927 6.15955Z" fill="#5DC563"/>
</g>
<defs>
<clipPath id="clip0_20_117">
<rect width="24" height="24" fill="white"/>
</clipPath>
</defs>
</svg>
