<svg width="24" height="24" viewBox="0 0 24 24" fill="none" xmlns="http://www.w3.org/2000/svg">
<path d="M23.2969 11.2969H18.3516V0.703125C18.3516 0.314812 18.0368 0 17.6484 0H6.35156C5.96325 0 5.64844 0.314812 5.64844 0.703125V11.2969H0.703125C0.314812 11.2969 0 11.6117 0 12V23.2969C0 23.6852 0.314812 24 0.703125 24H23.2969C23.6852 24 24 23.6852 24 23.2969V12C24 11.6117 23.6852 11.2969 23.2969 11.2969ZM16.9467 12.7031H18.3502V14.7512H16.9467V12.7031ZM12.7018 1.40625V3.45431H11.2983V1.40625H12.7018ZM7.05469 1.40625H9.89198V4.15744C9.89198 4.54575 10.2068 4.86056 10.5951 4.86056H13.4048C13.7932 4.86056 14.108 4.54575 14.108 4.15744V1.40625H16.9453V11.2969H7.05469V1.40625ZM5.6498 12.7031H7.05328V14.7512H5.6498V12.7031ZM1.40625 12.7031H4.24355V15.4543C4.24355 15.8426 4.55836 16.1574 4.94667 16.1574H7.75641C8.14472 16.1574 8.45953 15.8426 8.45953 15.4543V12.7031H11.2969V22.5938H1.40625V12.7031ZM22.5938 22.5938H12.7031V12.7031H15.5404V15.4543C15.5404 15.8426 15.8552 16.1574 16.2435 16.1574H19.0533C19.4416 16.1574 19.7564 15.8426 19.7564 15.4543V12.7031H22.5938V22.5938Z" fill="#5DC563"/>
</svg>
