<svg width="24" height="24" viewBox="0 0 24 24" fill="none" xmlns="http://www.w3.org/2000/svg">
<g clip-path="url(#clip0_20_128)">
<path d="M7.85216 18.9723H7.74186C8.20531 18.3658 8.48146 17.6088 8.48146 16.7883V15.0456C8.48141 13.0817 6.86445 11.4839 4.87699 11.4839C2.89187 11.4839 1.27688 13.0818 1.27688 15.0458L1.27257 16.7883C1.27257 17.6088 1.54871 18.3658 2.01216 18.9723H1.89755C0.851253 18.9723 0 19.8235 0 20.8699V23.2969C0 23.6852 0.314814 24 0.703128 24H9.04658C9.4349 24 9.74971 23.6852 9.74971 23.2969V20.8699C9.74971 19.8235 8.89846 18.9723 7.85216 18.9723ZM2.68314 15.0458C2.68314 13.8572 3.66733 12.8902 4.87699 12.8902C6.08904 12.8902 7.07511 13.8572 7.07515 15.0457V15.5804H6.74412C5.94405 15.5804 5.20029 15.2602 4.64988 14.6788C4.5161 14.5375 4.33099 14.4591 4.13931 14.4591C4.10589 14.4591 4.07228 14.4614 4.03872 14.4663C3.81259 14.4989 3.61642 14.6394 3.51273 14.8431C3.33934 15.1835 3.03765 15.4274 2.68309 15.5285V15.0458H2.68314ZM2.68623 16.9607C3.2845 16.8795 3.83209 16.6067 4.25261 16.1877C4.97491 16.7017 5.84857 16.9866 6.74417 16.9866H7.06582C6.97254 18.0244 6.15523 18.8565 5.12393 18.9723H4.63005C3.59022 18.8555 2.76807 18.0105 2.68623 16.9607ZM8.34346 22.5938H1.40626V20.8699C1.40626 20.599 1.62666 20.3786 1.89755 20.3786H7.85216C8.12305 20.3786 8.34346 20.599 8.34346 20.8699V22.5938Z" fill="#5DC563"/>
<path d="M23.2967 14.8894H14.0239C13.6356 14.8894 13.3208 15.2042 13.3208 15.5925V17.5277L11.0552 18.8357C10.8376 18.9614 10.7036 19.1934 10.7036 19.4446C10.7036 19.6958 10.8376 19.928 11.0552 20.0536L13.3208 21.3616V23.2968C13.3208 23.6851 13.6356 23.9999 14.0239 23.9999H23.2967C23.685 23.9999 23.9998 23.6851 23.9998 23.2968V15.5925C23.9998 15.2042 23.685 14.8894 23.2967 14.8894ZM22.5936 22.5937H14.7271V20.9557C14.7271 20.7045 14.593 20.4724 14.3755 20.3468L12.813 19.4447L14.3755 18.5426C14.593 18.417 14.7271 18.1849 14.7271 17.9337V16.2957H22.5936V22.5937Z" fill="#5DC563"/>
<path d="M20.953 20.1479C21.3208 20.1479 21.6731 19.8246 21.6561 19.4448C21.639 19.0639 21.3472 18.7417 20.953 18.7417C20.5852 18.7417 20.2328 19.0651 20.2499 19.4448C20.2669 19.8258 20.5588 20.1479 20.953 20.1479Z" fill="#5DC563"/>
<path d="M18.609 20.1479C18.9768 20.1479 19.3291 19.8246 19.3121 19.4448C19.2951 19.0639 19.0032 18.7417 18.609 18.7417C18.2412 18.7417 17.8889 19.0651 17.9059 19.4448C17.9229 19.8258 18.2148 20.1479 18.609 20.1479Z" fill="#5DC563"/>
<path d="M16.2652 20.1479C16.633 20.1479 16.9854 19.8246 16.9684 19.4448C16.9513 19.0639 16.6594 18.7417 16.2652 18.7417C15.8975 18.7417 15.5451 19.0651 15.5621 19.4448C15.5792 19.8258 15.871 20.1479 16.2652 20.1479Z" fill="#5DC563"/>
<path d="M22.1024 7.48845H21.9877C22.4512 6.88193 22.7274 6.12499 22.7274 5.30444L22.723 3.5619C22.723 1.59788 21.108 0 19.1229 0C17.1355 0 15.5185 1.59783 15.5185 3.56181V5.30444C15.5185 6.12499 15.7946 6.88193 16.2581 7.48845H16.1478C15.1015 7.48845 14.2502 8.33966 14.2502 9.38596V11.813C14.2502 12.2013 14.5651 12.5161 14.9534 12.5161H23.2968C23.6852 12.5161 24 12.2013 24 11.813V9.38596C23.9999 8.33966 23.1487 7.48845 22.1024 7.48845ZM16.9248 3.56181C16.9248 2.37324 17.9109 1.40626 19.1229 1.40626C20.3326 1.40626 21.3168 2.37329 21.3168 3.5619V4.04467C20.9622 3.94356 20.6605 3.69967 20.4871 3.35917C20.3834 3.15559 20.1872 3.01506 19.9611 2.98243C19.7348 2.94967 19.507 3.02898 19.35 3.19487C18.7995 3.77626 18.0557 4.09647 17.2557 4.09647H16.9247V3.56181H16.9248ZM16.9341 5.50277H17.2558C18.1513 5.50277 19.025 5.21786 19.7474 4.70383C20.1679 5.12289 20.7154 5.39566 21.3137 5.47685C21.2318 6.52681 20.4095 7.37183 19.3695 7.4885H18.8764C17.8449 7.37272 17.0274 6.54068 16.9341 5.50277ZM22.5937 11.1099H15.6565V9.38601C15.6565 9.11511 15.8769 8.89475 16.1478 8.89475H22.1024C22.3733 8.89475 22.5937 9.11511 22.5937 9.38601V11.1099Z" fill="#5DC563"/>
<path d="M13.2961 4.55533C13.2961 4.30413 13.1621 4.072 12.9446 3.94642L10.679 2.63837V0.703128C10.679 0.314814 10.3642 0 9.97584 0H0.703128C0.314814 0 0 0.314814 0 0.703128V8.40744C0 8.79575 0.314814 9.11057 0.703128 9.11057H9.97588C10.3642 9.11057 10.679 8.79575 10.679 8.40744V6.47225L12.9446 5.16424C13.1622 5.03861 13.2961 4.80654 13.2961 4.55533ZM9.62432 5.4574C9.40677 5.58302 9.27276 5.8151 9.27276 6.06631V7.70431H1.40626V1.40626H9.27276V3.04426C9.27276 3.29547 9.40677 3.52759 9.62432 3.65317L11.1868 4.55533L9.62432 5.4574Z" fill="#5DC563"/>
<path d="M3.04698 3.85205C2.6792 3.85205 2.32684 4.17544 2.34385 4.55518C2.36092 4.93613 2.65281 5.2583 3.04698 5.2583C3.41476 5.2583 3.76712 4.93491 3.75011 4.55518C3.73304 4.17422 3.44115 3.85205 3.04698 3.85205Z" fill="#5DC563"/>
<path d="M5.39073 3.85205C5.02295 3.85205 4.67059 4.17544 4.6876 4.55518C4.70467 4.93613 4.99656 5.2583 5.39073 5.2583C5.75851 5.2583 6.11087 4.93491 6.09385 4.55518C6.07679 4.17422 5.78495 3.85205 5.39073 3.85205Z" fill="#5DC563"/>
<path d="M7.73497 3.85205C7.36719 3.85205 7.01483 4.17544 7.03184 4.55518C7.0489 4.93613 7.3408 5.2583 7.73497 5.2583C8.10275 5.2583 8.45511 4.93491 8.43809 4.55518C8.42103 4.17422 8.12919 3.85205 7.73497 3.85205Z" fill="#5DC563"/>
</g>
<defs>
<clipPath id="clip0_20_128">
<rect width="24" height="24" fill="white"/>
</clipPath>
</defs>
</svg>
