<svg width="19" height="17" viewBox="0 0 19 17" fill="none" xmlns="http://www.w3.org/2000/svg">
<path d="M1.33241 0.333074C1.24407 0.331825 1.15636 0.348146 1.07438 0.381088C0.992404 0.414031 0.91779 0.462938 0.854877 0.524968C0.791964 0.586997 0.742007 0.660913 0.707908 0.742417C0.67381 0.823922 0.65625 0.911391 0.65625 0.999741C0.65625 1.08809 0.67381 1.17556 0.707908 1.25707C0.742007 1.33857 0.791964 1.41249 0.854877 1.47451C0.91779 1.53654 0.992404 1.58545 1.07438 1.61839C1.15636 1.65134 1.24407 1.66766 1.33241 1.66641H2.58501C2.73562 1.66641 2.86128 1.76072 2.90402 1.90599L5.74517 11.5648C5.99453 12.4127 6.77868 12.9997 7.66314 12.9997H14.9808C15.8798 12.9997 16.6735 12.3922 16.9105 11.5258L18.6423 5.17552C18.6693 5.0766 18.6732 4.97277 18.6535 4.87212C18.6339 4.77147 18.5913 4.6767 18.5291 4.5952C18.4668 4.51369 18.3866 4.44763 18.2947 4.40217C18.2028 4.35671 18.1016 4.33306 17.9991 4.33308H5.00819L4.18397 1.52969C4.18354 1.52969 4.1831 1.52969 4.18267 1.52969C3.97474 0.822964 3.32108 0.333074 2.58501 0.333074H1.33241ZM7.99908 14.3331C7.64545 14.3331 7.30632 14.4736 7.05627 14.7236C6.80622 14.9736 6.66574 15.3128 6.66574 15.6664C6.66574 16.02 6.80622 16.3592 7.05627 16.6092C7.30632 16.8593 7.64545 16.9997 7.99908 16.9997C8.3527 16.9997 8.69184 16.8593 8.94189 16.6092C9.19193 16.3592 9.33241 16.02 9.33241 15.6664C9.33241 15.3128 9.19193 14.9736 8.94189 14.7236C8.69184 14.4736 8.3527 14.3331 7.99908 14.3331ZM14.6657 14.3331C14.3121 14.3331 13.973 14.4736 13.7229 14.7236C13.4729 14.9736 13.3324 15.3128 13.3324 15.6664C13.3324 16.02 13.4729 16.3592 13.7229 16.6092C13.973 16.8593 14.3121 16.9997 14.6657 16.9997C15.0194 16.9997 15.3585 16.8593 15.6085 16.6092C15.8586 16.3592 15.9991 16.02 15.9991 15.6664C15.9991 15.3128 15.8586 14.9736 15.6085 14.7236C15.3585 14.4736 15.0194 14.3331 14.6657 14.3331Z" fill="#4C4560"/>
</svg>
