<svg width="16" height="16" viewBox="0 0 16 16" fill="none" xmlns="http://www.w3.org/2000/svg">
<path d="M11.2216 10.4173C12.1228 9.31 12.5642 7.89893 12.4549 6.4755C12.3455 5.05207 11.6936 3.72501 10.6339 2.76843C9.57411 1.81186 8.18744 1.29883 6.76028 1.33532C5.33312 1.37181 3.97448 1.95503 2.965 2.96451C1.95551 3.974 1.3723 5.33263 1.33581 6.75979C1.29932 8.18696 1.81234 9.57362 2.76892 10.6334C3.7255 11.6931 5.05256 12.345 6.47599 12.4544C7.89942 12.5638 9.31049 12.1223 10.4177 11.2211L13.697 14.5003C13.8036 14.6069 13.9482 14.6668 14.0989 14.6668C14.2497 14.6668 14.3942 14.6069 14.5008 14.5003C14.6074 14.3938 14.6673 14.2492 14.6673 14.0984C14.6673 13.9477 14.6074 13.8031 14.5008 13.6965L11.2216 10.4173ZM3.75414 10.0366C3.13272 9.41541 2.70949 8.62385 2.53798 7.76208C2.36646 6.9003 2.45435 6.00701 2.79055 5.19519C3.12675 4.38337 3.69614 3.68948 4.42672 3.20129C5.1573 2.71309 6.01624 2.45251 6.89492 2.45251C7.7736 2.45251 8.63255 2.71309 9.36313 3.20129C10.0937 3.68948 10.6631 4.38337 10.9993 5.19519C11.3355 6.00701 11.4234 6.9003 11.2519 7.76208C11.0804 8.62385 10.6571 9.41541 10.0357 10.0366C9.20208 10.8684 8.07255 11.3356 6.89492 11.3356C5.7173 11.3356 4.58776 10.8684 3.75414 10.0366Z" fill="#4C4560"/>
</svg>
