<svg width="20" height="20" viewBox="0 0 20 20" fill="none" xmlns="http://www.w3.org/2000/svg">
<path d="M14.0275 13.0222C15.1539 11.6381 15.7058 9.87428 15.5691 8.09499C15.4324 6.3157 14.6175 4.65688 13.2928 3.46115C11.9681 2.26543 10.2348 1.62414 8.45084 1.66976C6.66689 1.71537 4.96859 2.44439 3.70674 3.70625C2.44488 4.96811 1.71586 6.6664 1.67025 8.45035C1.62463 10.2343 2.26592 11.9676 3.46164 13.2923C4.65736 14.617 6.31619 15.4319 8.09548 15.5686C9.87477 15.7053 11.6386 15.1534 13.0227 14.027L17.1217 18.126C17.255 18.2593 17.4357 18.3341 17.6241 18.3341C17.8126 18.3341 17.9933 18.2593 18.1265 18.126C18.2598 17.9928 18.3346 17.8121 18.3346 17.6236C18.3346 17.4352 18.2598 17.2545 18.1265 17.1213L14.0275 13.0222ZM4.69316 12.5464C3.91639 11.7699 3.38736 10.7804 3.17296 9.70321C2.95856 8.62598 3.06843 7.50937 3.48868 6.4946C3.90892 5.47982 4.62066 4.61246 5.53389 4.00222C6.44711 3.39197 7.52079 3.06625 8.61914 3.06625C9.71749 3.06625 10.7912 3.39197 11.7044 4.00222C12.6176 4.61246 13.3294 5.47982 13.7496 6.4946C14.1699 7.50937 14.2797 8.62598 14.0653 9.70321C13.8509 10.7804 13.3219 11.7699 12.5451 12.5464C11.5031 13.5861 10.0912 14.1701 8.61914 14.1701C7.14711 14.1701 5.73519 13.5861 4.69316 12.5464Z" fill="#C4C4C4"/>
</svg>
