<svg width="8" height="14" viewBox="0 0 8 14" fill="none" xmlns="http://www.w3.org/2000/svg">
<path d="M0.795467 12.9653C0.869766 13.0397 0.957997 13.0987 1.05512 13.139C1.15223 13.1792 1.25634 13.2 1.36147 13.2C1.4666 13.2 1.5707 13.1792 1.66782 13.139C1.76494 13.0987 1.85317 13.0397 1.92747 12.9653L7.36547 7.53132C7.43985 7.45702 7.49886 7.36879 7.53912 7.27167C7.57937 7.17456 7.6001 7.07045 7.6001 6.96532C7.6001 6.86019 7.57937 6.75609 7.53912 6.65897C7.49886 6.56185 7.43985 6.47362 7.36547 6.39932L1.92747 0.965322C1.85385 0.887974 1.76549 0.826148 1.66761 0.783486C1.56972 0.740823 1.46428 0.71819 1.35751 0.716918C1.25074 0.715646 1.14479 0.735762 1.04591 0.776081C0.947036 0.816399 0.857233 0.876104 0.781794 0.951676C0.706356 1.02725 0.64681 1.11716 0.606666 1.2161C0.566523 1.31505 0.546594 1.42103 0.548054 1.5278C0.549515 1.63457 0.572335 1.73997 0.61517 1.83778C0.658006 1.93559 0.71999 2.02384 0.797467 2.09732L5.66947 6.96532L0.797468 11.8333C0.722955 11.9075 0.663792 11.9956 0.623361 12.0927C0.58293 12.1897 0.562023 12.2938 0.561837 12.3989C0.561651 12.504 0.582191 12.6082 0.622279 12.7054C0.662367 12.8026 0.721218 12.8909 0.795467 12.9653Z" fill="#979797"/>
</svg>
