<svg width="16" height="16" viewBox="0 0 16 16" fill="none" xmlns="http://www.w3.org/2000/svg">
<g clip-path="url(#clip0_374_3848)">
<path d="M15.3588 3.77206C15.3588 3.71127 15.3453 3.65049 15.3182 3.59308C15.2642 3.47826 15.1595 3.40059 15.0447 3.37695L8.16586 0.0405234C8.05442 -0.0135078 7.92272 -0.0135078 7.81128 0.0405234L0.864887 3.40734C0.729809 3.47151 0.642008 3.60659 0.635254 3.75855V3.76192C0.635254 3.7653 0.635254 3.76868 0.635254 3.77543V12.2246C0.635254 12.3799 0.723055 12.5217 0.864887 12.5893L7.81128 15.9561C7.81465 15.9561 7.81465 15.9561 7.81803 15.9595C7.82816 15.9629 7.83829 15.9662 7.84842 15.973C7.8518 15.973 7.85518 15.9764 7.86193 15.9764C7.87206 15.9797 7.88219 15.9831 7.89232 15.9865C7.8957 15.9865 7.89908 15.9899 7.90245 15.9899C7.91258 15.9932 7.92609 15.9932 7.93622 15.9966C7.9396 15.9966 7.94298 15.9966 7.94635 15.9966C7.95986 15.9966 7.97675 16 7.99025 16C8.00376 16 8.02065 16 8.03415 15.9966C8.03753 15.9966 8.04091 15.9966 8.04429 15.9966C8.05442 15.9966 8.06792 15.9932 8.07806 15.9899C8.08143 15.9899 8.08481 15.9865 8.08819 15.9865C8.09832 15.9831 8.10845 15.9797 8.11858 15.9764C8.12196 15.9764 8.12533 15.973 8.13209 15.973C8.14222 15.9696 8.15235 15.9662 8.16248 15.9595C8.16586 15.9595 8.16586 15.9595 8.16923 15.9561L15.1359 12.5791C15.2743 12.5116 15.3655 12.3698 15.3655 12.2144V3.78219C15.3588 3.77881 15.3588 3.77543 15.3588 3.77206ZM7.98688 0.854369L14.0114 3.77543L11.7927 4.85268L5.76822 1.93162L7.98688 0.854369ZM7.98688 6.6965L1.9624 3.77543L4.83956 2.38075L10.864 5.30182L7.98688 6.6965ZM1.44572 4.42718L7.58164 7.40228V14.943L1.44572 11.9679V4.42718ZM8.39211 14.943V7.40228L11.2727 6.00422V7.97636C11.2727 8.19924 11.455 8.3816 11.6779 8.3816C11.9008 8.3816 12.0831 8.19924 12.0831 7.97636V5.60912L14.5483 4.41368V11.9544L8.39211 14.943Z" fill="black"/>
</g>
<defs>
<clipPath id="clip0_374_3848">
<rect width="16" height="16" fill="white"/>
</clipPath>
</defs>
</svg>
