<svg width="14" height="14" viewBox="0 0 14 14" fill="none" xmlns="http://www.w3.org/2000/svg">
<g clip-path="url(#clip0_144_9824)">
<path d="M8.28263 7.01168L13.734 1.56019C14.0887 1.2056 14.0887 0.632263 13.734 0.277666C13.3794 -0.0769304 12.806 -0.0769304 12.4514 0.277666L6.99993 5.72915L1.5486 0.277666C1.19384 -0.0769304 0.62067 -0.0769304 0.266073 0.277666C-0.0886908 0.632263 -0.0886908 1.2056 0.266073 1.56019L5.7174 7.01168L0.266073 12.4632C-0.0886908 12.8178 -0.0886908 13.3911 0.266073 13.7457C0.44279 13.9226 0.675147 14.0114 0.907337 14.0114C1.13953 14.0114 1.37172 13.9226 1.5486 13.7457L6.99993 8.29421L12.4514 13.7457C12.6283 13.9226 12.8605 14.0114 13.0927 14.0114C13.3249 14.0114 13.5571 13.9226 13.734 13.7457C14.0887 13.3911 14.0887 12.8178 13.734 12.4632L8.28263 7.01168Z" fill="white"/>
</g>
<defs>
<clipPath id="clip0_144_9824">
<rect width="14" height="14" fill="white"/>
</clipPath>
</defs>
</svg>
