<svg width="16" height="17" viewBox="0 0 16 17" fill="none" xmlns="http://www.w3.org/2000/svg">
<g clip-path="url(#clip0_142_3186)">
<circle cx="8" cy="8.5" r="8" fill="#C4C4C4"/>
<path d="M8.54969 8.50004L10.886 6.16365C11.038 6.01167 11.038 5.76595 10.886 5.61398C10.734 5.46201 10.4883 5.46201 10.3363 5.61398L7.99996 7.95038L5.66368 5.61398C5.51164 5.46201 5.266 5.46201 5.11403 5.61398C4.96199 5.76595 4.96199 6.01167 5.11403 6.16365L7.45031 8.50004L5.11403 10.8364C4.96199 10.9884 4.96199 11.2341 5.11403 11.3861C5.18977 11.4619 5.28935 11.5 5.38886 11.5C5.48837 11.5 5.58788 11.4619 5.66368 11.3861L7.99996 9.04971L10.3363 11.3861C10.4121 11.4619 10.5116 11.5 10.6111 11.5C10.7107 11.5 10.8102 11.4619 10.886 11.3861C11.038 11.2341 11.038 10.9884 10.886 10.8364L8.54969 8.50004Z" fill="white"/>
</g>
<defs>
<clipPath id="clip0_142_3186">
<rect width="16" height="16" fill="white" transform="translate(0 0.5)"/>
</clipPath>
</defs>
</svg>
