<svg width="10" height="10" viewBox="0 0 10 10" fill="none" xmlns="http://www.w3.org/2000/svg">
<path d="M5.99952 4.94899L9.58116 1.36736C9.86687 1.08165 9.86687 0.602051 9.58116 0.316336C9.29545 0.0306222 8.81585 0.0306222 8.53013 0.316336L4.9485 3.89797L1.36687 0.316336C1.08116 0.0306222 0.601562 0.0306222 0.315848 0.316336C0.0301339 0.602051 0.0301339 1.08165 0.315848 1.36736L3.89748 4.94899L0.315848 8.53062C0.0301339 8.81634 0.0301339 9.29593 0.315848 9.58165C0.458705 9.7245 0.652584 9.79593 0.846462 9.79593C1.04034 9.79593 1.22401 9.7245 1.37708 9.58165L4.95871 6.00001L8.54034 9.58165C8.6832 9.7245 8.87708 9.79593 9.07096 9.79593C9.26483 9.79593 9.4485 9.7245 9.60156 9.58165C9.88728 9.29593 9.88728 8.81634 9.60156 8.53062L5.99952 4.94899Z" fill="#5DC563"/>
</svg>
