<svg width="20" height="20" viewBox="0 0 20 20" fill="none" xmlns="http://www.w3.org/2000/svg">
<path d="M14.139 15.1819C14.1165 14.8863 13.8816 14.6515 13.586 14.6289C13.2554 14.6541 13.0079 14.9425 13.033 15.2731C13.0555 15.5686 13.2904 15.8035 13.586 15.826C13.9166 15.8009 14.1642 15.5124 14.139 15.1819Z" fill="black"/>
<path d="M15.6019 14.6682C15.5793 14.3727 15.3445 14.1378 15.0489 14.1152C14.7183 14.1404 14.4707 14.4288 14.4959 14.7594C14.5184 15.0549 14.7533 15.2898 15.0489 15.3124C15.3795 15.2872 15.627 14.9988 15.6019 14.6682Z" fill="black"/>
<path d="M19.9973 5.53878V5.51102C19.9897 5.49172 19.9804 5.47315 19.9695 5.4555L19.9487 5.42774L19.907 5.38263L19.8828 5.36181L19.8377 5.34099H19.8203L12.2836 2.25968C12.2001 2.22594 12.1068 2.22594 12.0233 2.25968L4.50398 5.28894H4.48663L4.44152 5.30976L4.41723 5.33058L4.3756 5.37569L4.35478 5.40345C4.34389 5.4211 4.33461 5.43967 4.32702 5.45897V5.48673C4.32337 5.51553 4.32337 5.54468 4.32702 5.57348V8.34943H0.346994C0.155367 8.34943 0 8.5048 0 8.69642C0 8.88805 0.155367 9.04342 0.346994 9.04342V9.08853H4.28538V10.2752H2.93557C2.74394 10.2752 2.58858 10.4306 2.58858 10.6222C2.58858 10.8139 2.74394 10.9692 2.93557 10.9692H4.28538V12.156H1.08609C0.894464 12.156 0.739097 12.3113 0.739097 12.5029C0.739097 12.6946 0.894464 12.8499 1.08609 12.8499H4.28538V14.3004C4.28607 14.4405 4.37095 14.5664 4.50051 14.6196L12.0233 17.7426C12.061 17.7575 12.1009 17.7657 12.1413 17.7668C12.1817 17.7657 12.2217 17.7575 12.2593 17.7426L19.7821 14.6196C19.9117 14.5664 19.9966 14.4405 19.9973 14.3004V5.62553C20.0009 5.59673 20.0009 5.56758 19.9973 5.53878ZM12.1517 2.96408L15.004 4.10569L8.51523 6.85042L5.54844 5.61512L12.1517 2.96408ZM11.7943 16.9063L4.97936 14.0679V12.8465H6.41939C6.61102 12.8465 6.76638 12.6911 6.76638 12.4995C6.76638 12.3079 6.61102 12.1525 6.41939 12.1525H4.97936V10.9658H8.27581C8.46744 10.9658 8.6228 10.8104 8.6228 10.6188C8.6228 10.4271 8.46744 10.2718 8.27581 10.2718H4.97936V9.08853H5.67335C5.86498 9.08853 6.02035 8.93316 6.02035 8.74153C6.02035 8.5499 5.86498 8.39454 5.67335 8.39454H4.97936V6.13214L7.6304 7.22864L11.7943 8.96361V16.9063ZM12.1552 8.37719L9.41395 7.22864L15.9097 4.47351L18.7516 5.61859L14.6119 7.35356L12.1552 8.37719ZM12.4987 16.9063V8.96361L14.4523 8.15164L19.3102 6.1252L19.3276 14.0679L12.4987 16.9063Z" fill="black"/>
</svg>
