<svg width="16" height="16" viewBox="0 0 16 16" fill="none" xmlns="http://www.w3.org/2000/svg">
<path d="M4.06005 14.7369C4.14433 14.8203 4.24442 14.8865 4.3546 14.9316C4.46477 14.9768 4.58286 15 4.70213 15C4.82139 15 4.93948 14.9768 5.04966 14.9316C5.15983 14.8865 5.25992 14.8203 5.3442 14.7369L11.5131 8.64254C11.5975 8.55921 11.6644 8.46026 11.7101 8.35134C11.7558 8.24241 11.7793 8.12566 11.7793 8.00776C11.7793 7.88985 11.7558 7.7731 11.7101 7.66418C11.6644 7.55526 11.5975 7.4563 11.5131 7.37298L5.3442 1.27865C5.26069 1.19191 5.16046 1.12257 5.04941 1.07472C4.93837 1.02687 4.81876 1.00149 4.69763 1.00006C4.57651 0.998637 4.45632 1.0212 4.34416 1.06642C4.23199 1.11163 4.13012 1.17859 4.04454 1.26335C3.95896 1.3481 3.89141 1.44894 3.84587 1.55991C3.80033 1.67088 3.77772 1.78974 3.77938 1.90949C3.78104 2.02923 3.80692 2.14743 3.85552 2.25713C3.90411 2.36683 3.97443 2.4658 4.06232 2.54821L9.58917 8.00776L4.06232 13.4673C3.97779 13.5505 3.91067 13.6493 3.86481 13.7582C3.81894 13.867 3.79523 13.9837 3.79502 14.1016C3.7948 14.2195 3.81811 14.3363 3.86358 14.4453C3.90906 14.5543 3.97582 14.6534 4.06005 14.7369Z" fill="black"/>
</svg>
