<svg width="14" height="14" viewBox="0 0 14 14" fill="none" xmlns="http://www.w3.org/2000/svg">
<path d="M0.491429 7.48847H6.74857C6.96857 8.39418 7.78571 9.06847 8.76 9.06847C9.73428 9.06847 10.5486 8.39418 10.7714 7.48847H13.5086C13.78 7.48847 14 7.26847 14 6.99704C14 6.72561 13.78 6.50847 13.5086 6.50847H10.7714C10.5514 5.60275 9.73428 4.92847 8.76 4.92847C7.78571 4.92847 6.97143 5.60275 6.74857 6.50847H0.491429C0.22 6.50847 0 6.72847 0 6.99704C0.00285714 7.27132 0.222857 7.48847 0.491429 7.48847ZM8.76 5.91132C9.36 5.91132 9.84857 6.3999 9.84857 6.9999C9.84857 7.5999 9.36 8.08847 8.76 8.08847C8.16 8.08847 7.66857 7.5999 7.66857 6.9999C7.66857 6.3999 8.15714 5.91132 8.76 5.91132Z" fill="#5DC563"/>
<path d="M0.491429 12.2398H3.49429C3.71429 13.1455 4.53143 13.8198 5.50571 13.8198C6.48 13.8198 7.29428 13.1455 7.51714 12.2398H13.5086C13.78 12.2398 14 12.0198 14 11.7512C14 11.4798 13.78 11.2598 13.5086 11.2598H7.51714C7.29714 10.3541 6.48 9.67981 5.50571 9.67981C4.53143 9.67981 3.71714 10.3541 3.49429 11.2598H0.491429C0.22 11.2598 0 11.4798 0 11.7512C0.00285714 12.0198 0.222857 12.2398 0.491429 12.2398ZM5.50571 10.6598C6.10571 10.6598 6.59429 11.1484 6.59429 11.7484C6.59429 12.3484 6.10571 12.837 5.50571 12.837C4.91429 12.837 4.43143 12.3627 4.41714 11.7712C4.41714 11.7627 4.41714 11.7541 4.41714 11.7455C4.41714 11.737 4.41714 11.7284 4.41714 11.7198C4.43143 11.1341 4.91429 10.6598 5.50571 10.6598Z" fill="black"/>
<path d="M0.491429 2.73993H3.49429C3.71429 3.64565 4.53143 4.31993 5.50571 4.31993C6.48 4.31993 7.29428 3.64565 7.51714 2.73993H13.5086C13.78 2.73993 14 2.51993 14 2.2485C14 1.97707 13.78 1.75993 13.5086 1.75993H7.51714C7.29714 0.854217 6.48 0.179932 5.50571 0.179932C4.53143 0.179932 3.71714 0.854217 3.49429 1.75993H0.491429C0.22 1.75993 0 1.97993 0 2.2485C0.00285714 2.51993 0.222857 2.73993 0.491429 2.73993ZM5.50571 1.15993C6.10571 1.15993 6.59429 1.6485 6.59429 2.2485C6.59429 2.8485 6.10571 3.33707 5.50571 3.33707C4.91429 3.33707 4.43143 2.86279 4.41714 2.27136C4.41714 2.26279 4.41714 2.25422 4.41714 2.24565C4.41714 2.23707 4.41714 2.2285 4.41714 2.21993C4.43143 1.63707 4.91429 1.15993 5.50571 1.15993Z" fill="black"/>
</svg>
