<svg width="12" height="12" viewBox="0 0 12 12" fill="none" xmlns="http://www.w3.org/2000/svg">
<path fill-rule="evenodd" clip-rule="evenodd" d="M11 6C11 8.76142 8.76142 11 6 11C3.23858 11 1 8.76142 1 6C1 3.23858 3.23858 1 6 1C8.76142 1 11 3.23858 11 6ZM12 6C12 9.31371 9.31371 12 6 12C2.68629 12 0 9.31371 0 6C0 2.68629 2.68629 0 6 0C9.31371 0 12 2.68629 12 6ZM5.30022 6.64341V6.90839H6.24912V6.69355C6.24912 6.55032 6.27896 6.43454 6.33863 6.34621C6.4007 6.25789 6.54632 6.12898 6.77548 5.9595C7.10969 5.72078 7.33646 5.50594 7.45582 5.31496C7.57518 5.12399 7.63486 4.89721 7.63486 4.63463C7.63486 4.24075 7.48924 3.92564 7.19801 3.68931C6.90916 3.45299 6.51887 3.33482 6.02711 3.33482C5.43032 3.33482 4.86576 3.48402 4.33343 3.78241L4.72373 4.56659C5.18206 4.33265 5.59026 4.21568 5.94834 4.21568C6.15363 4.21568 6.31357 4.25626 6.42815 4.33743C6.54274 4.41859 6.60003 4.53675 6.60003 4.69192C6.60003 4.83037 6.55945 4.9557 6.47828 5.06789C6.39951 5.18009 6.23479 5.32571 5.98414 5.50474C5.72394 5.69572 5.54491 5.87595 5.44703 6.04543C5.34916 6.21492 5.30022 6.41425 5.30022 6.64341ZM5.34677 7.67825C5.23935 7.78089 5.18564 7.93248 5.18564 8.133C5.18564 8.32636 5.24054 8.47675 5.35035 8.58417C5.46016 8.68921 5.61533 8.74172 5.81585 8.74172C6.01159 8.74172 6.16437 8.68801 6.27418 8.58059C6.38399 8.47078 6.4389 8.32158 6.4389 8.133C6.4389 7.93725 6.38399 7.78686 6.27418 7.68183C6.16676 7.57679 6.01398 7.52427 5.81585 7.52427C5.61055 7.52427 5.45419 7.5756 5.34677 7.67825Z" fill="#979797"/>
</svg>
