<svg width="32" height="32" viewBox="0 0 32 32" fill="none" xmlns="http://www.w3.org/2000/svg">
<path d="M32 16C32 24.8366 24.8365 32 16 32C7.16344 32 -4.34256e-06 24.8366 -2.79753e-06 16C-1.2525e-06 7.16344 7.16344 1.2525e-06 16 2.79753e-06C24.8366 4.34256e-06 32 7.16345 32 16ZM3.15621 16C3.15621 23.0934 8.90657 28.8438 16 28.8438C23.0934 28.8438 28.8438 23.0934 28.8438 16C28.8438 8.90658 23.0934 3.15622 16 3.15622C8.90657 3.15622 3.15622 8.90658 3.15621 16Z" fill="#E5E5E5"/>
<path d="M16 30.4219C16 31.2935 16.7082 32.0081 17.5756 31.9222C19.1363 31.7678 20.6687 31.3844 22.1229 30.7821C24.0641 29.978 25.828 28.7995 27.3137 27.3137C28.7994 25.828 29.978 24.0641 30.7821 22.1229C31.3844 20.6687 31.7678 19.1363 31.9222 17.5756C32.0081 16.7082 31.2935 16 30.4219 16C29.5503 16 28.8538 16.7092 28.7469 17.5742C28.6054 18.72 28.3098 19.844 27.8661 20.9151C27.2206 22.4734 26.2746 23.8893 25.0819 25.0819C23.8893 26.2746 22.4734 27.2207 20.9151 27.8661C19.844 28.3098 18.72 28.6054 17.5741 28.747C16.7092 28.8538 16 29.5503 16 30.4219Z" fill="#5DC563"/>
</svg>
