<svg width="16" height="16" viewBox="0 0 16 16" fill="none" xmlns="http://www.w3.org/2000/svg">
<g clip-path="url(#clip0_374_3842)">
<path d="M14.3923 13.8671L13.4715 3.49079C13.455 3.28545 13.2828 3.12979 13.0741 3.12979H11.1333C11.13 1.40426 9.72573 0 8.0002 0C6.27468 0 4.87042 1.40426 4.86711 3.12979H2.92631C2.72097 3.12979 2.54875 3.28545 2.52887 3.49079L1.60815 13.8671C1.60815 13.8804 1.60815 13.8903 1.60815 13.9035C1.60815 15.0594 2.67129 16 3.97619 16H12.0242C13.3291 16 14.3923 15.0594 14.3923 13.9035C14.3923 13.8903 14.3923 13.8804 14.3923 13.8671ZM8.0002 0.794866C9.28855 0.794866 10.3351 1.84144 10.3384 3.12979H5.66197C5.66528 1.84144 6.71186 0.794866 8.0002 0.794866ZM12.0242 15.2018H3.97619C3.11509 15.2018 2.41296 14.6289 2.40302 13.9168L3.29062 3.92465H4.86711V5.31898C4.86711 5.53757 5.04595 5.71641 5.26454 5.71641C5.48313 5.71641 5.66197 5.53757 5.66197 5.31898V3.92465H10.3384V5.31898C10.3384 5.53757 10.5173 5.71641 10.7359 5.71641C10.9545 5.71641 11.1333 5.53757 11.1333 5.31898V3.92465H12.7098L13.5974 13.9201C13.5875 14.6289 12.8853 15.2018 12.0242 15.2018Z" fill="black"/>
</g>
<defs>
<clipPath id="clip0_374_3842">
<rect width="16" height="16" fill="white"/>
</clipPath>
</defs>
</svg>
