<svg width="16" height="16" viewBox="0 0 16 16" fill="none" xmlns="http://www.w3.org/2000/svg">
<path d="M10.6169 5.49941L6.92231 9.29704L5.38751 7.71942C5.17153 7.49742 4.82229 7.49742 4.60632 7.71942C4.39034 7.94142 4.39034 8.3004 4.60632 8.5224L6.53172 10.5015C6.63741 10.6101 6.77986 10.6668 6.92231 10.6668C7.06476 10.6668 7.20262 10.6101 7.3129 10.5015L11.3935 6.30712C11.6094 6.08511 11.6094 5.72613 11.3935 5.50413C11.1821 5.27741 10.8328 5.27741 10.6169 5.49941Z" fill="black"/>
<path d="M13.6579 2.34213C12.1464 0.830638 10.1379 0 8 0C5.86213 0 3.85362 0.830638 2.34213 2.34213C0.830638 3.85362 0 5.86213 0 8C0 10.1379 0.830638 12.1464 2.34213 13.6579C3.85362 15.1694 5.86213 16 8 16C10.1379 16 12.1464 15.1694 13.6579 13.6579C15.1694 12.1464 16 10.1379 16 8C16 5.86213 15.1694 3.85362 13.6579 2.34213ZM8 15.183C4.04085 15.183 0.817021 11.9591 0.817021 8C0.817021 4.04085 4.04085 0.817021 8 0.817021C11.9591 0.817021 15.183 4.04085 15.183 8C15.183 11.9591 11.9591 15.183 8 15.183Z" fill="black"/>
</svg>
