<svg width="14" height="14" viewBox="0 0 14 14" fill="none" xmlns="http://www.w3.org/2000/svg">
<path d="M4.2028 9.21794H11.9168C12.7915 9.21794 13.5051 8.50437 13.5051 7.62967V4.38409C13.5051 4.38121 13.5051 4.37546 13.5051 4.37258C13.5051 4.36395 13.5051 4.35819 13.5051 4.34956C13.5051 4.34381 13.5051 4.33805 13.5022 4.3323C13.5022 4.32654 13.4993 4.31791 13.4993 4.31216C13.4993 4.3064 13.4964 4.30065 13.4964 4.29489C13.4936 4.28914 13.4936 4.28338 13.4907 4.27475C13.4878 4.269 13.4878 4.26324 13.4849 4.25749C13.4821 4.25173 13.4821 4.24598 13.4792 4.24023C13.4763 4.23447 13.4734 4.22872 13.4706 4.22008C13.4677 4.21433 13.4648 4.20858 13.4619 4.2057C13.459 4.19994 13.4562 4.19419 13.4533 4.18843C13.4504 4.18268 13.4475 4.1798 13.4447 4.17405C13.4418 4.16829 13.436 4.16254 13.4331 4.15678C13.4303 4.15103 13.4274 4.14815 13.4216 4.1424C13.4188 4.13664 13.413 4.13377 13.4101 4.12801C13.4073 4.12226 13.4015 4.11938 13.3986 4.11362C13.3957 4.10787 13.39 4.10499 13.3871 4.10212C13.3814 4.09636 13.3785 4.09348 13.3727 4.08773C13.367 4.08485 13.3641 4.0791 13.3583 4.07622C13.3526 4.07334 13.3468 4.06759 13.3411 4.06471C13.3353 4.06183 13.3324 4.05896 13.3267 4.05608C13.3209 4.0532 13.3152 4.05032 13.3094 4.04457C13.3037 4.04169 13.2979 4.03882 13.2922 4.03594C13.2864 4.03306 13.2807 4.03018 13.2749 4.02731C13.2691 4.02443 13.2634 4.02155 13.2576 4.01867C13.2519 4.0158 13.2461 4.0158 13.2404 4.01292C13.2346 4.01004 13.226 4.00716 13.2202 4.00716C13.2145 4.00716 13.2087 4.00429 13.2058 4.00429C13.1972 4.00141 13.1915 4.00141 13.1828 4.00141C13.1799 4.00141 13.1771 3.99853 13.1713 3.99853L3.39428 2.64908V1.28525C3.39428 1.27086 3.39428 1.25648 3.39141 1.24497C3.39141 1.24209 3.3914 1.23921 3.38853 1.23346C3.38853 1.22483 3.38565 1.21619 3.38565 1.20756C3.38277 1.19893 3.38277 1.19318 3.3799 1.18454C3.3799 1.17879 3.37702 1.17591 3.37702 1.17016C3.37414 1.16153 3.37126 1.15289 3.36839 1.14426C3.36839 1.14138 3.36551 1.13563 3.36551 1.13275C3.36263 1.12412 3.35975 1.11837 3.354 1.10973C3.35112 1.10686 3.35112 1.1011 3.34825 1.09823C3.34537 1.09247 3.34249 1.08672 3.33674 1.08096C3.33386 1.07521 3.33098 1.07233 3.3281 1.06658C3.32523 1.06082 3.32235 1.05794 3.31947 1.05219C3.3166 1.04643 3.31084 1.04068 3.30796 1.03492C3.30509 1.03205 3.30221 1.02917 3.29933 1.02629C3.29358 1.02054 3.28782 1.01478 3.28207 1.00903C3.27919 1.00615 3.27631 1.00327 3.27344 1.0004C3.26768 0.994643 3.26193 0.988888 3.25329 0.983134C3.25042 0.980256 3.24466 0.977379 3.24179 0.974502C3.23603 0.968747 3.23028 0.96587 3.22452 0.960115C3.21589 0.954361 3.20726 0.948606 3.2015 0.945729C3.19863 0.942852 3.19575 0.942852 3.19287 0.939974C3.18136 0.93422 3.16698 0.928465 3.15547 0.922711L1.0349 0.030751C0.836371 -0.0526904 0.609065 0.0393829 0.525624 0.237916C0.442183 0.436449 0.534256 0.663755 0.732789 0.747196L2.61454 1.54133V3.30223V3.58133V5.72203V7.63543V10.0524C2.61454 10.858 3.21877 11.5255 3.99851 11.6262C3.85753 11.8622 3.77408 12.1384 3.77408 12.4319C3.77408 13.2979 4.47902 14 5.34221 14C6.20539 14 6.91033 13.2951 6.91033 12.4319C6.91033 12.1441 6.83264 11.8708 6.69453 11.6406H10.1876C10.0495 11.8737 9.97177 12.1441 9.97177 12.4319C9.97177 13.2979 10.6767 14 11.5399 14C12.4031 14 13.108 13.2951 13.108 12.4319C13.108 11.5687 12.4031 10.8637 11.5399 10.8637H4.2028C3.75394 10.8637 3.39141 10.4983 3.39141 10.0524V8.99926C3.62734 9.13737 3.90644 9.21794 4.2028 9.21794ZM6.13634 12.429C6.13634 12.8663 5.77956 13.2202 5.34508 13.2202C4.91061 13.2202 4.55383 12.8635 4.55383 12.429C4.55383 11.9945 4.91061 11.6377 5.34508 11.6377C5.77956 11.6377 6.13634 11.9916 6.13634 12.429ZM12.334 12.429C12.334 12.8663 11.9772 13.2202 11.5428 13.2202C11.1083 13.2202 10.7515 12.8635 10.7515 12.429C10.7515 11.9945 11.1083 11.6377 11.5428 11.6377C11.9772 11.6377 12.334 11.9916 12.334 12.429ZM11.9168 8.44107H4.2028C3.75394 8.44107 3.39141 8.07565 3.39141 7.62967V5.71628V3.57557V3.43171L12.7282 4.71786V7.6268C12.7282 8.07853 12.3628 8.44107 11.9168 8.44107Z" fill="#5DC563"/>
</svg>
