<svg width="14" height="14" viewBox="0 0 14 14" fill="none" xmlns="http://www.w3.org/2000/svg">
<g clip-path="url(#clip0_327_6439)">
<path d="M13.3961 9.51777C13.683 9.15182 13.8206 8.75951 13.803 8.3555C13.7854 7.9105 13.5864 7.56211 13.4224 7.34839C13.6127 6.87411 13.6859 6.12756 13.0506 5.54789C12.5851 5.12338 11.7946 4.93308 10.6997 4.98578C9.92973 5.02091 9.28565 5.16437 9.2593 5.17022H9.25637C9.10999 5.19657 8.95483 5.22877 8.79673 5.26391C8.78502 5.07654 8.81723 4.61104 9.16269 3.56294C9.57256 2.31577 9.54914 1.36136 9.08657 0.723128C8.60058 0.0526976 7.82476 0 7.5964 0C7.37683 0 7.17482 0.090757 7.03136 0.257633C6.7064 0.635299 6.74445 1.33208 6.78544 1.65412C6.39899 2.69051 5.31576 5.2317 4.39941 5.93726C4.38184 5.94898 4.36721 5.96361 4.35257 5.97825C4.08323 6.26223 3.90171 6.56964 3.77875 6.83898C3.60602 6.7453 3.40987 6.6926 3.19908 6.6926H1.41321C0.739855 6.6926 0.195312 7.24007 0.195312 7.9105V12.6679C0.195312 13.3413 0.742782 13.8858 1.41321 13.8858H3.19908C3.45964 13.8858 3.70263 13.8038 3.90171 13.6633L4.58971 13.7453C4.6951 13.7599 6.5688 13.9971 8.49226 13.959C8.84065 13.9854 9.16855 14 9.47302 14C9.99707 14 10.4538 13.959 10.8344 13.877C11.7302 13.6867 12.3421 13.3061 12.6524 12.747C12.8896 12.3195 12.8896 11.895 12.8515 11.6257C13.4341 11.0987 13.5366 10.5161 13.5161 10.1062C13.5044 9.86909 13.4517 9.66708 13.3961 9.51777ZM1.41321 13.0954C1.17607 13.0954 0.985777 12.9021 0.985777 12.6679V7.90757C0.985777 7.67043 1.179 7.48013 1.41321 7.48013H3.19908C3.43622 7.48013 3.62651 7.67336 3.62651 7.90757V12.665C3.62651 12.9021 3.43329 13.0924 3.19908 13.0924H1.41321V13.0954ZM12.6466 9.17524C12.5236 9.30406 12.5002 9.50021 12.5939 9.65245C12.5939 9.65537 12.7139 9.86031 12.7286 10.1414C12.7491 10.5249 12.5646 10.8645 12.1782 11.1543C12.0406 11.2597 11.9849 11.4412 12.0435 11.6052C12.0435 11.6081 12.1694 11.9946 11.9644 12.3605C11.7683 12.7118 11.3321 12.9636 10.6704 13.1041C10.1405 13.2183 9.42032 13.2388 8.53617 13.1685C8.52446 13.1685 8.50982 13.1685 8.49519 13.1685C6.61271 13.2095 4.70974 12.9636 4.68925 12.9607H4.68632L4.39063 12.9256C4.40819 12.8436 4.41698 12.7558 4.41698 12.6679V7.90757C4.41698 7.78168 4.39648 7.65872 4.36135 7.54454C4.41405 7.34839 4.56043 6.91217 4.90589 6.54036C6.22041 5.49812 7.50564 1.98202 7.56127 1.82978C7.58469 1.7683 7.59054 1.70096 7.57883 1.63363C7.52906 1.30573 7.54663 0.904642 7.61689 0.784609C7.77206 0.787537 8.19071 0.831451 8.44249 1.17984C8.74111 1.59264 8.7294 2.33041 8.40736 3.30824C7.91551 4.79841 7.87453 5.58302 8.2639 5.92848C8.45713 6.10121 8.71476 6.11 8.90213 6.04266C9.08072 6.00167 9.25052 5.96654 9.41154 5.94019C9.42325 5.93726 9.43789 5.93434 9.4496 5.93141C10.3484 5.73526 11.9586 5.61522 12.5178 6.12463C12.9921 6.55793 12.6554 7.13174 12.6173 7.19322C12.509 7.35717 12.5412 7.57089 12.6876 7.70263C12.6905 7.70556 12.9979 7.9954 13.0125 8.38478C13.0243 8.64534 12.9013 8.91175 12.6466 9.17524Z" fill="#5DC563"/>
</g>
<defs>
<clipPath id="clip0_327_6439">
<rect width="14" height="14" fill="white"/>
</clipPath>
</defs>
</svg>
