<svg width="14" height="14" viewBox="0 0 14 14" fill="none" xmlns="http://www.w3.org/2000/svg">
<g clip-path="url(#clip0_327_6486)">
<path d="M3.20635 2.77624C5.27328 0.906567 8.36654 0.877979 10.4621 2.5847L8.80108 2.64759C8.58667 2.65617 8.42085 2.83342 8.42943 3.04783C8.43801 3.25652 8.60954 3.41948 8.81537 3.41948C8.82109 3.41948 8.82395 3.41948 8.82967 3.41948L11.3797 3.32514C11.5884 3.31656 11.7514 3.14789 11.7514 2.93919V2.91061C11.7514 2.90489 11.7514 2.90203 11.7514 2.89631V2.89345L11.657 0.371966C11.6485 0.157554 11.4684 -0.00825824 11.2568 0.000318242C11.0424 0.00889473 10.8766 0.186142 10.8852 0.400554L10.9452 1.98149C9.90744 1.13241 8.62955 0.640696 7.26303 0.572084C5.5706 0.486319 3.94393 1.06666 2.6889 2.20448C0.962168 3.76825 0.230308 6.1468 0.779203 8.41099C0.822086 8.58824 0.979321 8.70545 1.15371 8.70545C1.18516 8.70545 1.21375 8.70259 1.24519 8.69402C1.45103 8.64256 1.57968 8.43386 1.52822 8.22803C1.04793 6.23828 1.68831 4.14848 3.20635 2.77624Z" fill="#5DC563"/>
<path d="M13.2208 5.5888C13.1693 5.38297 12.9606 5.25432 12.7548 5.30578C12.549 5.35724 12.4203 5.56593 12.4718 5.77177C12.9549 7.76152 12.3117 9.85132 10.7936 11.2236C9.7273 12.187 8.38936 12.6616 7.05715 12.6616C5.78497 12.6616 4.51565 12.2299 3.49219 11.3779L5.17318 11.2264C5.38473 11.2064 5.54197 11.0206 5.52196 10.8062C5.50195 10.5918 5.31612 10.4374 5.10171 10.4574L2.56021 10.6861C2.34866 10.7061 2.19142 10.8919 2.21143 11.1063L2.44014 13.6478C2.45729 13.848 2.62596 13.9995 2.82322 13.9995C2.83466 13.9995 2.84609 13.9995 2.85753 13.9966C3.06908 13.9766 3.22632 13.7908 3.20631 13.5764L3.06908 12.0297C4.10684 12.8702 5.37902 13.3591 6.73696 13.4277C6.8456 13.4334 6.95423 13.4363 7.06001 13.4363C8.63522 13.4363 10.1333 12.8588 11.3111 11.7953C13.0378 10.2315 13.7697 7.85586 13.2208 5.5888Z" fill="#5DC563"/>
</g>
<defs>
<clipPath id="clip0_327_6486">
<rect width="14" height="14" fill="white"/>
</clipPath>
</defs>
</svg>
