<svg width="300" height="272" viewBox="0 0 300 272" fill="none" xmlns="http://www.w3.org/2000/svg">
<path d="M266.845 105.795V270.725H258.065H216.366L207.586 270.725H179.63L170.85 270.725V162.837H129.151V270.725H120.371H92.4146L83.6343 270.725H41.9355H33.1558V249.434C33.1558 247.009 35.121 245.044 37.5456 245.044C39.9702 245.044 41.9355 247.009 41.9355 249.434V270.725H83.6343V210.851H41.9355V229.019C41.9355 231.444 39.9702 233.409 37.5456 233.409C35.121 233.409 33.1558 231.444 33.1558 229.019V209.387C33.1558 205.353 36.4382 202.071 40.4724 202.071H85.0979C89.1321 202.071 92.4146 205.353 92.4146 209.387V270.725H120.371V161.374C120.371 157.339 123.653 154.057 127.687 154.057H172.314C176.348 154.057 179.63 157.339 179.63 161.374V270.725H207.586V105.795C207.586 101.761 210.868 98.4785 214.902 98.4785H222.192C224.616 98.4785 226.581 100.444 226.581 102.868C226.581 105.293 224.616 107.258 222.192 107.258H216.366V270.725H258.065V107.258H242.834C240.41 107.258 238.444 105.293 238.444 102.868C238.444 100.444 240.41 98.4785 242.834 98.4785H259.528C263.562 98.4785 266.845 101.761 266.845 105.795Z" fill="url(#paint0_linear_20_52)"/>
<path d="M36.4722 161.398L33.9609 176.04C33.2607 180.123 34.9078 184.171 38.2587 186.605C40.1525 187.981 42.3679 188.681 44.598 188.681C46.3148 188.681 48.0404 188.266 49.6353 187.428L62.7843 180.515L75.9333 187.428C79.599 189.355 83.9578 189.04 87.3099 186.606C90.6609 184.171 92.3079 180.122 91.6077 176.04L89.0964 161.398L99.7341 151.028C102.7 148.137 103.748 143.894 102.468 139.955C101.188 136.015 97.8468 133.198 93.7476 132.602L79.0464 130.466L72.4722 117.144C70.6388 113.429 66.9269 111.123 62.7843 111.123C58.6423 111.123 54.9304 113.43 53.0976 117.144L46.5234 130.466L31.8216 132.602C27.7224 133.198 24.3814 136.014 23.1011 139.955C21.8214 143.895 22.8685 148.137 25.8345 151.028L36.4722 161.398ZM31.4513 142.668C31.5685 142.308 31.9611 141.454 33.0843 141.291L48.457 139.057C50.8962 138.703 53.0038 137.172 54.0954 134.961L60.9708 121.03C61.473 120.012 62.4064 119.902 62.7843 119.902C63.1622 119.902 64.0956 120.012 64.5984 121.03L71.4738 134.96C72.5648 137.171 74.6724 138.703 77.1111 139.057L92.4849 141.291C93.6081 141.454 94.0007 142.308 94.1179 142.668C94.2351 143.027 94.4191 143.949 93.6058 144.741L82.4824 155.584C80.7163 157.304 79.9113 159.782 80.3285 162.212L82.9546 177.523C83.1462 178.642 82.4554 179.28 82.1495 179.502C81.8431 179.724 81.0228 180.185 80.0197 179.656L66.2689 172.426C65.1779 171.853 63.9808 171.566 62.7843 171.566C61.5878 171.566 60.3908 171.853 59.2997 172.426L45.549 179.656C44.5441 180.184 43.7249 179.724 43.4191 179.502C43.1132 179.279 42.4224 178.642 42.614 177.523L45.2402 162.212C45.6574 159.782 44.8517 157.304 43.0874 155.585L31.9628 144.741C31.1501 143.949 31.3341 143.027 31.4513 142.668V142.668Z" fill="url(#paint1_linear_20_52)"/>
<path d="M123.688 107.985L121.176 122.628C120.476 126.71 122.122 130.758 125.473 133.193C127.367 134.569 129.583 135.268 131.813 135.268C133.53 135.268 135.256 134.854 136.851 134.016L150 127.103L163.149 134.016C166.815 135.944 171.174 135.628 174.526 133.193C177.877 130.758 179.524 126.71 178.824 122.628L176.312 107.985L186.95 97.6161C189.916 94.7251 190.963 90.4817 189.683 86.5424C188.404 82.6026 185.062 79.786 180.962 79.1901L166.262 77.0538L159.687 63.7319C157.854 60.0176 154.142 57.7102 150 57.7102C145.858 57.7102 142.146 60.0176 140.312 63.7319L133.738 77.0538L119.036 79.1901C114.938 79.786 111.596 82.6026 110.316 86.5424C109.036 90.4811 110.083 94.7251 113.049 97.6167L123.688 107.985ZM118.666 89.2553C118.783 88.8956 119.176 88.0424 120.299 87.879L135.674 85.6448C138.113 85.2897 140.219 83.7592 141.31 81.5491L148.186 67.6178C148.688 66.6001 149.621 66.4905 149.999 66.4905C150.377 66.4905 151.31 66.6001 151.812 67.6178L158.689 81.5508C159.78 83.7598 161.887 85.2897 164.326 85.6448L179.7 87.879C180.823 88.0424 181.215 88.8967 181.333 89.2559C181.449 89.6157 181.633 90.5368 180.821 91.329L169.696 102.173C167.932 103.893 167.127 106.37 167.543 108.8L170.169 124.112C170.361 125.23 169.67 125.868 169.364 126.09C169.058 126.311 168.238 126.773 167.234 126.243L153.484 119.015C152.393 118.441 151.196 118.154 149.999 118.154C148.803 118.154 147.605 118.441 146.514 119.014L132.764 126.243C131.758 126.772 130.939 126.311 130.634 126.09C130.328 125.868 129.638 125.23 129.829 124.112L132.455 108.8C132.872 106.371 132.068 103.894 130.302 102.172L119.178 91.3295C118.365 90.5368 118.549 89.6157 118.666 89.2553V89.2553Z" fill="url(#paint2_linear_20_52)"/>
<path d="M210.902 50.9173L208.391 65.5593C207.69 69.6415 209.337 73.6903 212.688 76.1249C216.04 78.5595 220.398 78.8741 224.066 76.9476L237.215 70.0347L250.364 76.9476C251.959 77.7855 253.684 78.1997 255.402 78.1997C257.632 78.1997 259.848 77.5007 261.741 76.1249C265.092 73.6903 266.739 69.6415 266.038 65.5593L263.527 50.9173L274.164 40.548C277.131 37.6569 278.178 33.4136 276.898 29.4749C275.619 25.5351 272.277 22.7179 268.178 22.122L253.477 19.9851L246.902 6.66377C245.068 2.94951 241.357 0.64209 237.215 0.64209C233.073 0.64209 229.361 2.94951 227.527 6.66377L220.952 19.9851L206.252 22.122C202.153 22.7173 198.811 25.5345 197.531 29.4743C196.251 33.413 197.298 37.6569 200.264 40.548L210.902 50.9173ZM205.882 32.1878C205.998 31.828 206.391 30.9743 207.515 30.8108L222.887 28.5767C225.328 28.2228 227.436 26.6917 228.526 24.481L235.401 10.5503C235.904 9.53252 236.837 9.42295 237.215 9.42295C237.592 9.42295 238.527 9.53252 239.028 10.5503L245.904 24.4815C246.995 26.6917 249.103 28.2233 251.541 28.5767L266.915 30.8108C268.038 30.9743 268.432 31.8286 268.548 32.1878C268.665 32.5476 268.849 33.4687 268.036 34.2608L256.911 45.1054C255.147 46.8257 254.342 49.3024 254.758 51.7323L257.384 67.0435C257.576 68.1626 256.885 68.8001 256.579 69.0222C256.274 69.2448 255.454 69.7048 254.449 69.1757L240.699 61.947C239.608 61.3733 238.41 61.0862 237.214 61.0862C236.017 61.0862 234.82 61.3733 233.73 61.9464L219.979 69.1757C218.975 69.7048 218.155 69.2436 217.849 69.0222C217.543 68.7995 216.853 68.1626 217.044 67.0435L219.67 51.7335C220.087 49.3042 219.283 46.8269 217.517 45.1048L206.393 34.2608C205.58 33.4687 205.764 32.547 205.882 32.1878V32.1878Z" fill="url(#paint3_linear_20_52)"/>
<defs>
<linearGradient id="paint0_linear_20_52" x1="33.1558" y1="184.602" x2="266.845" y2="184.602" gradientUnits="userSpaceOnUse">
<stop stop-color="#34EAC7"/>
<stop offset="1" stop-color="#49CA81"/>
</linearGradient>
<linearGradient id="paint1_linear_20_52" x1="22.5645" y1="149.902" x2="103.005" y2="149.902" gradientUnits="userSpaceOnUse">
<stop stop-color="#34EAC7"/>
<stop offset="1" stop-color="#49CA81"/>
</linearGradient>
<linearGradient id="paint2_linear_20_52" x1="109.779" y1="96.4893" x2="190.22" y2="96.4893" gradientUnits="userSpaceOnUse">
<stop stop-color="#34EAC7"/>
<stop offset="1" stop-color="#49CA81"/>
</linearGradient>
<linearGradient id="paint3_linear_20_52" x1="196.994" y1="39.4209" x2="277.435" y2="39.4209" gradientUnits="userSpaceOnUse">
<stop stop-color="#34EAC7"/>
<stop offset="1" stop-color="#49CA81"/>
</linearGradient>
</defs>
</svg>
