<svg width="300" height="299" viewBox="0 0 300 299" fill="none" xmlns="http://www.w3.org/2000/svg">
<path d="M266.845 105.442V269.822H258.065H216.366L207.586 269.823H179.63L170.85 269.822V162.294H129.151V269.822H120.371H92.4147L83.6344 269.823H41.9356H33.1559V248.602C33.1559 246.186 35.1211 244.227 37.5457 244.227C39.9703 244.227 41.9356 246.186 41.9356 248.602V269.823H83.6344V210.148H41.9356V228.255C41.9356 230.672 39.9703 232.631 37.5457 232.631C35.1211 232.631 33.1559 230.672 33.1559 228.255V208.689C33.1559 204.668 36.4383 201.397 40.4725 201.397H85.0981C89.1323 201.397 92.4147 204.668 92.4147 208.689V269.822H120.371V160.836C120.371 156.815 123.653 153.543 127.688 153.543H172.314C176.348 153.543 179.63 156.815 179.63 160.836V269.823H207.586V105.442C207.586 101.422 210.868 98.1501 214.903 98.1501H222.192C224.616 98.1501 226.581 100.109 226.581 102.525C226.581 104.942 224.616 106.901 222.192 106.901H216.366V269.822H258.065V106.901H242.834C240.41 106.901 238.444 104.942 238.444 102.525C238.444 100.109 240.41 98.1501 242.834 98.1501H259.528C263.562 98.1501 266.845 101.422 266.845 105.442Z" fill="url(#paint0_linear_338_505)" fill-opacity="0.5"/>
<path d="M36.4722 160.86L33.9609 175.453C33.2607 179.522 34.9078 183.557 38.2587 185.983C40.1525 187.354 42.3679 188.052 44.598 188.052C46.3148 188.052 48.0404 187.638 49.6353 186.803L62.7843 179.913L75.9333 186.803C79.599 188.724 83.9578 188.41 87.3099 185.984C90.6609 183.557 92.3079 179.521 91.6077 175.453L89.0964 160.86L99.7341 150.525C102.7 147.643 103.748 143.414 102.468 139.488C101.188 135.561 97.8468 132.754 93.7476 132.16L79.0464 130.03L72.4722 116.754C70.6388 113.051 66.9269 110.752 62.7843 110.752C58.6423 110.752 54.9304 113.052 53.0976 116.754L46.5234 130.03L31.8216 132.16C27.7224 132.754 24.3814 135.561 23.1011 139.488C21.8214 143.415 22.8685 147.643 25.8345 150.524L36.4722 160.86ZM31.4513 142.192C31.5685 141.833 31.9611 140.982 33.0843 140.82L48.457 138.593C50.8962 138.241 53.0038 136.714 54.0954 134.511L60.9708 120.627C61.473 119.612 62.4064 119.502 62.7843 119.502C63.1622 119.502 64.0956 119.612 64.5984 120.627L71.4738 134.51C72.5648 136.714 74.6724 138.24 77.1111 138.593L92.4849 140.82C93.6081 140.982 94.0007 141.833 94.1179 142.192C94.2351 142.55 94.4191 143.469 93.6058 144.258L82.4824 155.065C80.7163 156.779 79.9113 159.25 80.3285 161.671L82.9546 176.931C83.1462 178.046 82.4554 178.682 82.1495 178.904C81.8431 179.125 81.0228 179.584 80.0197 179.057L66.2689 171.851C65.1779 171.28 63.9808 170.994 62.7843 170.994C61.5878 170.994 60.3908 171.28 59.2997 171.851L45.549 179.057C44.5441 179.583 43.7249 179.125 43.4191 178.904C43.1132 178.682 42.4224 178.046 42.614 176.931L45.2402 161.671C45.6574 159.25 44.8517 156.78 43.0874 155.066L31.9628 144.259C31.1501 143.469 31.3341 142.55 31.4513 142.192V142.192Z" fill="url(#paint1_linear_338_505)" fill-opacity="0.5"/>
<path d="M123.687 107.625L121.176 122.219C120.476 126.288 122.122 130.323 125.473 132.749C127.367 134.12 129.582 134.817 131.813 134.817C133.53 134.817 135.255 134.404 136.85 133.569L149.999 126.679L163.148 133.569C166.815 135.491 171.174 135.176 174.526 132.749C177.877 130.323 179.524 126.287 178.823 122.219L176.311 107.625L186.95 97.2907C189.916 94.4093 190.963 90.1801 189.683 86.2539C188.403 82.3272 185.062 79.52 180.962 78.9261L166.261 76.7969L159.687 63.5194C157.853 59.8176 154.141 57.5178 149.999 57.5178C145.857 57.5178 142.145 59.8176 140.312 63.5194L133.738 76.7969L119.036 78.9261C114.937 79.52 111.596 82.3272 110.316 86.2539C109.035 90.1795 110.082 94.4093 113.049 97.2913L123.687 107.625ZM118.666 88.9578C118.783 88.5992 119.176 87.7489 120.299 87.586L135.674 85.3593C138.112 85.0054 140.219 83.48 141.31 81.2772L148.185 67.3924C148.687 66.378 149.621 66.2688 149.999 66.2688C150.377 66.2688 151.31 66.378 151.812 67.3924L158.689 81.279C159.779 83.4806 161.886 85.0054 164.326 85.3593L179.699 87.586C180.823 87.7489 181.215 88.6004 181.332 88.9584C181.449 89.3169 181.633 90.235 180.82 91.0245L169.696 101.832C167.931 103.547 167.127 106.015 167.543 108.437L170.169 123.698C170.361 124.813 169.67 125.448 169.364 125.669C169.058 125.89 168.238 126.35 167.234 125.822L153.483 118.618C152.393 118.046 151.196 117.76 149.999 117.76C148.802 117.76 147.605 118.046 146.514 118.617L132.763 125.822C131.758 126.35 130.939 125.89 130.634 125.669C130.328 125.448 129.637 124.813 129.829 123.698L132.455 108.437C132.872 106.017 132.067 103.547 130.302 101.832L119.177 91.0251C118.365 90.235 118.549 89.3169 118.666 88.9578V88.9578Z" fill="url(#paint2_linear_338_505)" fill-opacity="0.5"/>
<path d="M210.902 50.7477L208.391 65.3409C207.69 69.4096 209.337 73.4449 212.688 75.8713C216.04 78.2978 220.398 78.6114 224.065 76.6913L237.214 69.8014L250.363 76.6913C251.958 77.5264 253.684 77.9392 255.401 77.9392C257.632 77.9392 259.847 77.2425 261.741 75.8713C265.092 73.4449 266.739 69.4096 266.038 65.3409L263.527 50.7477L274.164 40.413C277.131 37.5316 278.178 33.3024 276.898 29.3768C275.619 25.4501 272.277 22.6423 268.178 22.0484L253.477 19.9186L246.902 6.64174C245.068 2.93987 241.356 0.640137 237.214 0.640137C233.072 0.640137 229.361 2.93987 227.527 6.64174L220.952 19.9186L206.252 22.0484C202.153 22.6417 198.811 25.4495 197.531 29.3763C196.251 33.3018 197.298 37.5316 200.264 40.413L210.902 50.7477ZM205.881 32.0807C205.998 31.7221 206.391 30.8713 207.514 30.7083L222.887 28.4816C225.328 28.1289 227.436 26.6029 228.526 24.3995L235.401 10.5153C235.904 9.50093 236.837 9.39173 237.214 9.39173C237.592 9.39173 238.526 9.50093 239.028 10.5153L245.904 24.4001C246.995 26.6029 249.103 28.1294 251.541 28.4816L266.915 30.7083C268.038 30.8713 268.431 31.7227 268.548 32.0807C268.665 32.4393 268.849 33.3573 268.036 34.1468L256.911 44.9552C255.147 46.6698 254.342 49.1383 254.758 51.5601L257.384 66.8202C257.576 67.9356 256.885 68.5709 256.579 68.7923C256.274 69.0142 255.454 69.4726 254.449 68.9453L240.698 61.7407C239.607 61.1689 238.41 60.8828 237.214 60.8828C236.017 60.8828 234.82 61.1689 233.73 61.7401L219.979 68.9453C218.975 69.4726 218.155 69.013 217.849 68.7923C217.543 68.5704 216.853 67.9356 217.044 66.8202L219.67 51.5612C220.087 49.14 219.282 46.671 217.517 44.9546L206.392 34.1468C205.58 33.3573 205.764 32.4387 205.881 32.0807V32.0807Z" fill="url(#paint3_linear_338_505)" fill-opacity="0.5"/>
<defs>
<linearGradient id="paint0_linear_338_505" x1="33.1559" y1="183.987" x2="266.845" y2="183.987" gradientUnits="userSpaceOnUse">
<stop stop-color="#34EAC7"/>
<stop offset="1" stop-color="#49CA81"/>
</linearGradient>
<linearGradient id="paint1_linear_338_505" x1="22.5645" y1="149.402" x2="103.005" y2="149.402" gradientUnits="userSpaceOnUse">
<stop stop-color="#34EAC7"/>
<stop offset="1" stop-color="#49CA81"/>
</linearGradient>
<linearGradient id="paint2_linear_338_505" x1="109.779" y1="96.1677" x2="190.22" y2="96.1677" gradientUnits="userSpaceOnUse">
<stop stop-color="#34EAC7"/>
<stop offset="1" stop-color="#49CA81"/>
</linearGradient>
<linearGradient id="paint3_linear_338_505" x1="196.994" y1="39.2897" x2="277.435" y2="39.2897" gradientUnits="userSpaceOnUse">
<stop stop-color="#34EAC7"/>
<stop offset="1" stop-color="#49CA81"/>
</linearGradient>
</defs>
</svg>
