<svg width="28" height="28" viewBox="0 0 28 28" fill="none" xmlns="http://www.w3.org/2000/svg">
<path fill-rule="evenodd" clip-rule="evenodd" d="M17.7612 19.4865H10.2382C9.57697 19.4865 8.72425 20.2118 8.72425 21.1144H19.2748C19.2748 20.2118 18.4244 19.4865 17.7612 19.4865ZM3.75136 15.6202C3.12643 15.6145 2.86402 15.8113 2.76424 16.1186C2.58549 16.6641 2.38088 17.7428 3.35389 18.0986C4.15185 18.3901 5.83513 18.5989 6.72951 18.7315C7.59064 18.8603 7.80735 18.3553 7.50664 17.6006C6.94958 16.1976 5.6883 15.9024 4.50194 15.6985C4.20628 15.648 3.96 15.6232 3.75136 15.6202ZM24.2463 15.6202C24.038 15.6232 23.7914 15.648 23.4954 15.6982C22.3124 15.902 21.0491 16.1972 20.4924 17.6002C20.193 18.3553 20.4084 18.8603 21.2695 18.7311C22.1656 18.5973 23.8435 18.3898 24.6431 18.0982C25.6161 17.7425 25.4132 16.6641 25.2348 16.1182C25.1354 15.8117 24.8709 15.6149 24.2463 15.6202ZM13.9988 4.43767C10.9817 4.43767 9.16741 4.52268 8.15039 4.79344C7.71462 4.91058 7.40686 5.35504 7.29296 5.67567L5.17525 11.4577C6.98822 11.5953 10.6528 11.9159 13.9988 11.9159C17.3459 11.9159 21.0088 11.5953 22.8218 11.4577L20.7078 5.67567C20.5939 5.35504 20.2827 4.91058 19.8466 4.79344C18.8303 4.52301 17.0156 4.43767 13.9988 4.43767ZM13.9988 2.6665C17.0422 2.6665 18.9139 2.71202 20.309 3.08352C21.5003 3.40282 22.1041 4.36303 22.3826 5.08261L24.584 10.795L26.2935 10.7934C26.9829 10.7934 27.3327 11.1197 27.3327 11.6756C27.3327 12.4163 26.9846 13.1067 26.0328 13.5967L26.2861 14.0459C26.6207 14.6804 26.8653 15.3535 26.8653 15.9552V20.8832C26.8653 21.7075 26.2931 22.403 25.6249 22.6627V24.5209C25.6249 24.9727 25.2627 25.3332 24.8111 25.3332H22.4979C22.0467 25.3332 21.6808 24.9724 21.6808 24.5209V22.7762H6.31625V24.5209C6.31625 24.9727 5.95238 25.3332 5.50116 25.3332H3.1859C2.73434 25.3332 2.37248 24.9724 2.37248 24.5209V22.6624C1.70522 22.4027 1.13337 21.7072 1.13337 20.8828V15.9549C1.13337 15.3531 1.37663 14.6804 1.71093 14.0455L1.96426 13.5964C1.0141 13.1064 0.664342 12.4159 0.666022 11.6753C0.666022 11.119 1.0141 10.793 1.70354 10.793L3.41705 10.7947L5.6164 5.08227C5.89291 4.3627 6.49836 3.40215 7.69009 3.08319C9.08509 2.71202 10.9558 2.6665 13.9988 2.6665Z" fill="white"/>
</svg>
